<svg xmlns="http://www.w3.org/2000/svg" viewBox="0 0 512 512"><circle cx="256" cy="256" r="234.667" style="fill:#4cc66e"/><path d="M418.71 111.406a42.675 42.675 0 0 0-36.093 65.36A148.789 148.789 0 0 1 405.333 256c0 82.343-66.99 149.333-149.333 149.333a148.168 148.168 0 0 1-60.141-12.58 42.667 42.667 0 0 0-34.49 78.052 233.123 233.123 0 0 0 71.747 18.76h.001l.37.036c1.236.117 2.469.225 3.71.323h.005l.178.015h.01l.169.014.022.001.164.013.023.002.157.012.037.003.153.011.03.003.156.011.034.003.154.011.034.003.152.01.037.003.153.011.034.003.15.01.04.004.153.01.028.002.158.011.03.003.162.01.009.001.178.013h.008c.614.042 1.223.081 1.838.118l.03.002.165.01.02.001.157.01.036.001.145.009.046.003.135.007.059.004.132.007.054.003.136.008.054.003.137.008.05.002.136.008.058.003.132.007.056.003.133.007.06.003.129.007.06.003.127.006.07.004.12.006.065.003.128.006.057.003.135.007.05.002.138.007.054.002.139.007.038.002.153.007h.023l.166.008h.017c.297.015.612.028.91.04h.015l.15.007.041.002.141.005.05.002.129.005.064.003.114.004.079.003.114.004.076.003.116.005.075.003.115.003.077.003.113.004.078.003.116.004.074.003.117.004.074.002.117.004.078.002.108.004.087.003.104.003.087.002.105.004.086.002.107.004.085.002.105.003.086.002.11.004.079.002.11.003.082.002.112.003.085.002.102.003.096.002.098.003.087.002.106.002.083.002.11.003.099.002.09.002.12.003.199.004.063.001.12.003.072.001.109.002.085.002.1.002.093.002.1.001.092.002.1.002.092.001.099.002.096.001.098.002.093.001.1.002.094.001.099.002h.092l.101.002.094.001.097.001.097.002h.093l.102.002h.092a9.204 9.204 0 0 0 .195.003h.1l.09.002h.104l.09.001.104.001.09.001h.101l.092.001.104.001h.192l.092.001h.097l.097.001h.192l.112.001h.377l.093.001H256c129.603 0 234.667-105.064 234.667-234.666v-.388l-.001-.17V255.224l-.001-.172V254.841c-.002-.047-.002-.103-.002-.15v-.189l-.002-.051v-.175l-.001-.164-.001-.034-.001-.14v-.044l-.002-.164v-.007l-.002-.17v-.042l-.002-.14v-.036l-.002-.166v-.04l-.002-.133-.001-.048-.002-.168v-.01a13.21 13.21 0 0 1-.003-.161v-.042l-.002-.159v-.011c-.002-.056-.002-.117-.003-.172l-.001-.041-.002-.136v-.04l-.004-.171v-.02l-.003-.153v-.04a12.843 12.843 0 0 1-.004-.158v-.015c0-.055-.002-.11-.003-.164l-.001-.051c0-.048-.001-.085-.003-.132v-.04l-.004-.164v-.044l-.004-.127v-.051l-.005-.164v-.025l-.004-.142v-.055l-.004-.132v-.037l-.005-.16-.001-.055-.003-.122-.002-.048c0-.055-.002-.111-.004-.166v-.026l-.005-.146-.001-.043-.004-.152v-.02c-.003-.055-.004-.111-.005-.166l-.002-.048-.003-.127-.002-.046-.005-.162-.001-.043-.004-.13-.002-.05-.005-.163v-.02l-.005-.15-.002-.045-.005-.149-.001-.022-.006-.17-.002-.038c0-.047-.003-.093-.004-.14l-.001-.035-.007-.172v-.017l-.006-.153-.002-.043-.005-.152-.001-.018-.006-.165-.002-.05-.005-.13-.002-.04-.007-.169-.001-.03-.005-.137-.002-.05-.007-.163-.001-.016-.007-.154-.001-.048-.006-.137-.002-.031-.007-.166-.002-.042-.006-.136-.002-.04-.007-.167-.002-.024-.006-.145-.003-.047-.006-.141-.002-.03-.007-.166-.002-.041a8.997 8.997 0 0 1-.007-.132l-.002-.044-.008-.16-.002-.049-.006-.117-.003-.063-.008-.153v-.014l-.01-.156-.002-.053-.006-.13-.003-.039-.009-.164-.002-.039-.007-.136-.002-.04-.01-.166-.001-.03-.008-.14-.003-.048-.008-.138-.002-.031c-.002-.055-.005-.11-.009-.164l-.002-.043-.008-.134-.003-.04c-.002-.056-.006-.112-.01-.167v-.03l-.01-.134-.003-.054-.009-.157v-.007l-.01-.165c-.001-.016-.003-.033-.003-.05l-.009-.133-.002-.034-.01-.162-.003-.05-.008-.121a13.452 13.452 0 0 0-.014-.214l-.001-.023-.01-.144-.003-.049-.009-.136-.002-.034a14.06 14.06 0 0 0-.011-.163l-.003-.044-.008-.126-.004-.049-.01-.16-.003-.04-.01-.128-.003-.053-.01-.155-.001-.008-.012-.166-.003-.045-.01-.138-.003-.033-.012-.162-.003-.047-.01-.125-.003-.047-.012-.162-.002-.031-.01-.134-.004-.057a7.148 7.148 0 0 0-.01-.12l-.003-.047-.012-.157-.004-.052-.01-.117-.003-.056a13.102 13.102 0 0 1-.013-.158l-.003-.036a8.244 8.244 0 0 0-.01-.127l-.004-.059-.011-.135-.002-.028-.013-.158-.005-.058-.009-.112a1.605 1.605 0 0 0-.004-.055l-.013-.152-.005-.06-.008-.107-.006-.064-.01-.13-.007-.066-.01-.12a1.77 1.77 0 0 1-.004-.06l-.01-.115-.005-.052-.013-.155-.004-.053c-.004-.03-.008-.083-.01-.114l-.005-.057-.014-.155-.004-.045-.01-.118-.006-.064-.011-.128-.004-.032-.013-.156-.006-.058a6.75 6.75 0 0 0-.01-.115l-.005-.053-.014-.155-.005-.05-.01-.115a1.58 1.58 0 0 1-.006-.058l-.013-.144-.004-.042-.013-.138-.005-.053a6.545 6.545 0 0 0-.01-.112l-.006-.058-.014-.148-.007-.065-.009-.1a2.505 2.505 0 0 1-.007-.069l-.014-.146-.006-.06a5.262 5.262 0 0 0-.01-.1l-.007-.071-.01-.104a3.845 3.845 0 0 1-.008-.085l-.012-.12-.008-.074a3.935 3.935 0 0 1-.008-.087l-.008-.074-.015-.141-.007-.077a4.262 4.262 0 0 0-.009-.087l-.008-.074a7.207 7.207 0 0 0-.02-.188l-.012-.12-.006-.066-.011-.105-.007-.06-.015-.15-.006-.058-.012-.106a2.206 2.206 0 0 0-.006-.062c-.006-.054-.01-.1-.017-.154l-.003-.038-.014-.124-.007-.063-.012-.111-.005-.05-.017-.15-.007-.063-.011-.107-.007-.06-.016-.147-.007-.064-.011-.102-.008-.062-.013-.122a2.96 2.96 0 0 1-.009-.077l-.013-.112-.008-.073a4.166 4.166 0 0 0-.01-.092l-.008-.068-.017-.145-.007-.069-.012-.093a2.657 2.657 0 0 0-.008-.071l-.017-.15-.005-.043c-.005-.038-.01-.075-.013-.113l-.009-.071-.012-.103-.007-.057-.017-.146-.009-.073-.01-.086-.01-.076c-.004-.046-.01-.09-.015-.137a2.944 2.944 0 0 1-.01-.075l-.01-.092-.01-.072-.012-.105-.01-.083-.015-.118-.008-.065-.013-.1-.007-.067-.018-.142-.01-.07-.01-.095-.009-.065-.017-.13-.01-.08-.011-.094-.01-.081-.012-.084-.01-.075-.016-.137a3.251 3.251 0 0 1-.01-.078l-.011-.083-.01-.078-.019-.14-.009-.069-.012-.09-.009-.073-.014-.105-.01-.082-.017-.12-.008-.067a4.373 4.373 0 0 1-.012-.092l-.01-.072-.02-.143a5.211 5.211 0 0 1-.022-.163l-.008-.068-.018-.128-.01-.068-.013-.107-.01-.072-.014-.097-.008-.064-.02-.141-.01-.075a3.844 3.844 0 0 1-.013-.088l-.01-.07-.016-.12-.013-.093-.013-.09-.01-.074-.014-.099-.011-.08-.018-.123-.01-.067-.013-.098a2.299 2.299 0 0 1-.01-.066l-.021-.147-.008-.057a5.259 5.259 0 0 1-.025-.171l-.015-.106-.015-.097-.013-.097-.012-.079-.012-.085-.01-.069-.022-.141-.01-.072-.014-.09-.01-.075-.015-.098-.018-.119-.011-.076-.013-.08-.011-.081-.02-.13-.013-.084-.012-.082a3.61 3.61 0 0 1-.024-.157l-.021-.134-.012-.08-.012-.078-.013-.085-.013-.078-.02-.135a2.725 2.725 0 0 0-.012-.071l-.014-.092-.01-.067-.02-.12-.015-.1a3.889 3.889 0 0 0-.014-.085l-.01-.068-.014-.089-.01-.063c-.009-.05-.016-.102-.024-.153a2.833 2.833 0 0 1-.012-.072l-.014-.084a7.49 7.49 0 0 0-.032-.198l-.014-.094-.012-.072a4.24 4.24 0 0 0-.014-.089l-.013-.076a8.265 8.265 0 0 0-.02-.126l-.016-.094a4.556 4.556 0 0 1-.025-.156l-.01-.063-.029-.168-.007-.049-.017-.098-.01-.059-.014-.09-.023-.13-.014-.088-.012-.07a3.737 3.737 0 0 1-.014-.085l-.015-.087a8.713 8.713 0 0 0-.021-.127l-.013-.072a3.986 3.986 0 0 0-.014-.087l-.012-.072-.02-.12-.018-.098-.013-.081-.012-.068a4.892 4.892 0 0 1-.016-.09l-.01-.055-.027-.161-.012-.069-.016-.089-.01-.06-.03-.169-.008-.049-.016-.092-.013-.072-.014-.082-.023-.129-.017-.096-.01-.055a4.65 4.65 0 0 0-.016-.093l-.01-.06-.031-.17-.01-.049a4.94 4.94 0 0 0-.016-.097l-.011-.06-.021-.117-.02-.105-.015-.084-.01-.063c-.007-.032-.013-.065-.018-.097l-.003-.011-.038-.211-.01-.05c-.005-.034-.011-.065-.018-.1l-.008-.048a17.198 17.198 0 0 1-.033-.18l-.009-.045-.02-.104-.007-.04-.061-.33-.009-.048-.02-.102-.005-.032-.037-.198-.008-.04-.018-.098-.01-.053-.063-.326-.007-.04-.066-.341-.005-.03-.022-.11-.006-.031-.04-.212-.005-.021-.021-.108-.008-.04-.066-.338-.006-.031-.022-.113-.002-.01-.045-.221-.006-.032-.021-.107-.007-.035-.067-.335-.009-.041-.068-.34-.006-.03a6.141 6.141 0 0 1-.022-.109l-.006-.029a61.165 61.165 0 0 0-.072-.353l-.003-.014c-.024-.119-.05-.239-.073-.357l-.005-.023a6.583 6.583 0 0 0-.025-.116v-.006a27.454 27.454 0 0 1-.049-.235l-.004-.017-.024-.115-.004-.019-.075-.359-.003-.015-.075-.352-.006-.029-.023-.11-.005-.025-.074-.344-.008-.035a60.607 60.607 0 0 0-.073-.337l-.008-.036-.022-.104-.007-.032c-.015-.074-.032-.147-.048-.22l-.002-.01-.025-.112-.006-.03-.076-.345-.006-.025-.076-.348-.006-.025-.024-.11-.007-.03-.078-.347-.004-.02-.079-.348-.006-.028c-.01-.04-.016-.074-.026-.113l-.002-.008-.08-.359-.008-.03a67.558 67.558 0 0 0-.08-.349l-.003-.015-.085-.365-.001-.006-.028-.119-.004-.018-.082-.351-.006-.024-.083-.353-.004-.015-.028-.12c-.002-.007.001.005 0-.002-.02-.083-.04-.163-.059-.247v-.001l-.028-.117-.005-.02-.084-.352-.005-.019-.118-.488-.002-.01-.09-.367v-.002l-.091-.372v-.001l-.123-.493-.003-.012-.09-.366c-.003-.008.001.006 0-.001l-.126-.495-.001-.007-.091-.358-.006-.02q-.313-1.236-.64-2.466l-.003-.007-.13-.484-.004-.018-.231-.854-.001-.004-.1-.362-.002-.01-.135-.489a76.725 76.725 0 0 1-.102-.369v-.002a233.416 233.416 0 0 0-27.2-61.502 42.635 42.635 0 0 0-36.174-19.985z" style="fill:#14a142"/><circle cx="266.667" cy="224" r="10.667" style="fill:#66ce83"/><circle cx="181.333" cy="330.667" r="10.667" style="fill:#66ce83"/><circle cx="202.667" cy="394.667" r="10.667" style="fill:#66ce83"/><circle cx="117.333" cy="352" r="10.667" style="fill:#66ce83"/><circle cx="138.667" cy="330.667" r="10.667" style="fill:#66ce83"/><circle cx="309.333" cy="224" r="10.667" style="fill:#66ce83"/><circle cx="245.333" cy="138.667" r="10.667" style="fill:#66ce83"/><circle cx="288" cy="138.667" r="10.667" style="fill:#66ce83"/><circle cx="138.667" cy="373.333" r="10.667" style="fill:#66ce83"/><circle cx="181.333" cy="373.333" r="10.667" style="fill:#66ce83"/><circle cx="96" cy="373.333" r="10.667" style="fill:#66ce83"/><circle cx="330.667" cy="138.667" r="10.667" style="fill:#66ce83"/><circle cx="245.333" cy="74.667" r="10.667" style="fill:#66ce83"/><circle cx="288" cy="74.667" r="10.667" style="fill:#66ce83"/><circle cx="266.667" cy="117.333" r="10.667" style="fill:#66ce83"/><circle cx="309.333" cy="117.333" r="10.667" style="fill:#66ce83"/><circle cx="245.333" cy="330.667" r="10.667" style="fill:#66ce83"/><circle cx="288" cy="330.667" r="10.667" style="fill:#66ce83"/><circle cx="330.667" cy="330.667" r="10.667" style="fill:#66ce83"/><circle cx="309.333" cy="288" r="10.667" style="fill:#66ce83"/><circle cx="352" cy="288" r="10.667" style="fill:#66ce83"/><circle cx="266.667" cy="288" r="10.667" style="fill:#66ce83"/><circle cx="96" cy="330.667" r="10.667" style="fill:#66ce83"/><circle cx="53.333" cy="330.667" r="10.667" style="fill:#66ce83"/><circle cx="74.667" cy="181.333" r="10.667" style="fill:#66ce83"/><circle cx="53.333" cy="288" r="10.667" style="fill:#66ce83"/><circle cx="330.667" cy="96" r="10.667" style="fill:#66ce83"/><path d="M42.691 192h-.024l-1.272.003a10.667 10.667 0 0 0 .071 21.333h.025l.952-.003h.224A10.667 10.667 0 0 0 42.69 192zm28.721 1.533a10.667 10.667 0 0 0-1.124 21.273c124.538 13.36 222.347 116.03 228.11 242.694a10.668 10.668 0 0 0 10.648 10.183q.245 0 .492-.012a10.666 10.666 0 0 0 10.171-11.14c-6.162-135.444-112.411-248.483-247.146-262.937a10.828 10.828 0 0 0-1.15-.061z" style="fill:#14a142"/><circle cx="138.667" cy="416" r="10.667" style="fill:#4cc66e"/><circle cx="181.333" cy="416" r="10.667" style="fill:#4cc66e"/><circle cx="160" cy="437.333" r="10.667" style="fill:#4cc66e"/><circle cx="202.667" cy="437.333" r="10.667" style="fill:#4cc66e"/><circle cx="245.333" cy="437.333" r="10.667" style="fill:#4cc66e"/><circle cx="245.333" cy="480" r="10.667" style="fill:#4cc66e"/><circle cx="288" cy="437.333" r="10.667" style="fill:#4cc66e"/><circle cx="288" cy="480" r="10.667" style="fill:#4cc66e"/><circle cx="330.667" cy="437.333" r="10.667" style="fill:#4cc66e"/><circle cx="373.333" cy="437.333" r="10.667" style="fill:#4cc66e"/><circle cx="224" cy="416" r="10.667" style="fill:#4cc66e"/><circle cx="266.667" cy="416" r="10.667" style="fill:#4cc66e"/><circle cx="309.333" cy="416" r="10.667" style="fill:#4cc66e"/><circle cx="352" cy="416" r="10.667" style="fill:#4cc66e"/><circle cx="181.333" cy="458.667" r="10.667" style="fill:#4cc66e"/><circle cx="224" cy="458.667" r="10.667" style="fill:#4cc66e"/><circle cx="266.667" cy="458.667" r="10.667" style="fill:#4cc66e"/><circle cx="309.333" cy="458.667" r="10.667" style="fill:#4cc66e"/><circle cx="352" cy="458.667" r="10.667" style="fill:#4cc66e"/><circle cx="394.667" cy="416" r="10.667" style="fill:#4cc66e"/><circle cx="330.667" cy="394.667" r="10.667" style="fill:#4cc66e"/><circle cx="373.333" cy="394.667" r="10.667" style="fill:#4cc66e"/><circle cx="309.333" cy="373.333" r="10.667" style="fill:#4cc66e"/><circle cx="352" cy="373.333" r="10.667" style="fill:#4cc66e"/><circle cx="416" cy="394.667" r="10.667" style="fill:#4cc66e"/><circle cx="437.333" cy="373.333" r="10.667" style="fill:#4cc66e"/><circle cx="394.667" cy="373.333" r="10.667" style="fill:#4cc66e"/><circle cx="373.333" cy="352" r="10.667" style="fill:#4cc66e"/><circle cx="416" cy="352" r="10.667" style="fill:#4cc66e"/><circle cx="437.333" cy="330.667" r="10.667" style="fill:#4cc66e"/><circle cx="394.667" cy="330.667" r="10.667" style="fill:#4cc66e"/><circle cx="458.667" cy="352" r="10.667" style="fill:#4cc66e"/><circle cx="373.333" cy="224" r="10.667" style="fill:#4cc66e"/><circle cx="416" cy="224" r="10.667" style="fill:#4cc66e"/><circle cx="437.333" cy="202.667" r="10.667" style="fill:#4cc66e"/><circle cx="394.667" cy="202.667" r="10.667" style="fill:#4cc66e"/><circle cx="458.667" cy="224" r="10.667" style="fill:#4cc66e"/><circle cx="373.333" cy="181.333" r="10.667" style="fill:#4cc66e"/><circle cx="416" cy="181.333" r="10.667" style="fill:#4cc66e"/><circle cx="437.333" cy="160" r="10.667" style="fill:#4cc66e"/><circle cx="394.667" cy="160" r="10.667" style="fill:#4cc66e"/><circle cx="458.667" cy="181.333" r="10.667" style="fill:#4cc66e"/><circle cx="373.333" cy="138.667" r="10.667" style="fill:#4cc66e"/><circle cx="416" cy="138.667" r="10.667" style="fill:#4cc66e"/><circle cx="394.667" cy="117.333" r="10.667" style="fill:#4cc66e"/><path d="M202.69 35.297h-.133a10.666 10.666 0 0 0-10.536 10.795 276.868 276.868 0 0 0 193.064 260.874 10.666 10.666 0 1 0 6.474-20.327 255.254 255.254 0 0 1-76.623-39.755h-.001c-.41-.31-.815-.62-1.223-.932v-.001c-.815-.624-1.62-1.25-2.427-1.884l-.006-.004-.6-.473-.001-.001a165.82 165.82 0 0 1-.599-.475l-.006-.005-.596-.475-.004-.003-.595-.479-.004-.002-.591-.478-.01-.008-.585-.476-.013-.01-.583-.477-.01-.008-.142-.117-.002-.002-.436-.359-.018-.015-.135-.11-.005-.005-.436-.361-.014-.011a25.126 25.126 0 0 0-.136-.114l-.006-.005c-.143-.119-.29-.24-.432-.36l-.02-.016-.134-.113-.003-.002-.433-.363-.016-.014-.13-.11-.014-.01-.427-.361-.019-.016c-.044-.037-.084-.07-.127-.108l-.013-.01-.426-.362-.02-.017-.126-.107-.014-.013-.422-.36-.026-.022-.121-.103-.016-.014-.285-.245-.002-.002-.133-.114-.024-.02-.123-.107-.015-.013-.283-.244-.01-.01-.125-.107-.028-.025-.117-.1-.02-.018-.417-.362-.025-.022a11.925 11.925 0 0 0-.117-.102l-.02-.019-.281-.245-.005-.004-.128-.112-.03-.026-.114-.1-.02-.018-.136-.12h-.001l-.143-.126-.006-.006-.127-.112-.028-.024-.118-.104-.017-.015-.414-.367-.026-.023-.115-.102-.02-.018-.41-.366-.03-.027a11.047 11.047 0 0 1-.112-.099l-.024-.02-.408-.367-.028-.025-.114-.103-.02-.016-.41-.371-.023-.021a43.587 43.587 0 0 0-.118-.106l-.02-.018-.132-.12-.003-.002a25.719 25.719 0 0 0-.139-.127l-.009-.008-.123-.112-.03-.027-.11-.1-.023-.021-.127-.116-.008-.006-.27-.247-.03-.028-.105-.096-.03-.028-.124-.113-.007-.007a25.124 25.124 0 0 1-.139-.127l-.007-.007-.124-.113-.03-.028-.108-.1-.024-.022-.126-.115-.008-.008-.138-.127-.006-.007-.123-.113-.032-.03-.104-.096-.031-.028a17.138 17.138 0 0 0-.111-.104l-.021-.019a47.03 47.03 0 0 0-.134-.124l-.014-.013a18.858 18.858 0 0 0-.116-.108l-.034-.032-.1-.093-.032-.03a11.979 11.979 0 0 0-.115-.107l-.016-.015-.136-.128h-.002l-.127-.12-.03-.028-.108-.1-.024-.024-.13-.121-.268-.253-.031-.03-.103-.096-.03-.028-.114-.108-.016-.016-.136-.128h-.001l-.127-.12-.03-.03-.104-.098-.03-.03q-.057-.052-.112-.105l-.018-.017-.133-.126-.015-.014-.112-.108-.039-.036a12.32 12.32 0 0 1-.093-.09l-.036-.034-.11-.105-.018-.017-.263-.252-.028-.026-.105-.102-.028-.026-.114-.11-.016-.015a48.001 48.001 0 0 1-.133-.129l-.008-.007-.12-.115-.034-.034-.097-.094-.032-.03-.108-.105-.022-.021-.258-.25-.033-.032-.1-.098-.03-.029-.106-.103-.024-.023a24.381 24.381 0 0 1-.132-.128l-.001-.001-.126-.123-.031-.03-.097-.096-.035-.034-.104-.102-.024-.022-.256-.252-.033-.033-.099-.097-.03-.03c-.041-.04-.07-.067-.11-.108l-.018-.017-.132-.13-.002-.002-.121-.12-.04-.04-.09-.088-.036-.037-.1-.099-.028-.027-.128-.127-.006-.006-.116-.116-.04-.04-.092-.09-.036-.036-.095-.096a23.731 23.731 0 0 1-.157-.157l-.018-.017-.105-.105-.047-.046-.08-.08-.045-.045-.086-.086-.04-.04-.124-.125-.006-.006-.115-.116-.043-.044-.085-.084-.042-.042-.09-.093-.033-.033-.126-.126-.012-.012a17.848 17.848 0 0 1-.11-.112l-.041-.041-.089-.09-.035-.035-.1-.101-.026-.028-.248-.252-.04-.041-.087-.089-.04-.04a7.548 7.548 0 0 1-.089-.09l-.037-.039-.122-.124-.021-.022-.102-.104-.044-.045-.08-.081-.045-.047-.082-.084-.042-.044-.242-.248-.043-.044-.083-.086-.041-.043-.09-.092-.033-.035-.123-.127-.013-.013-.108-.112-.045-.046-.078-.082-.045-.046-.085-.088-.038-.04-.122-.127-.005-.005-.116-.12-.039-.041-.086-.09-.04-.042-.086-.09-.038-.04a18.208 18.208 0 0 1-.11-.115l-.032-.033-.098-.103-.046-.049-.077-.08-.044-.047-.087-.09-.035-.037-.242-.256-.04-.04-.082-.09-.043-.044a9.681 9.681 0 0 0-.084-.09l-.038-.038-.116-.124-.014-.014a37.37 37.37 0 0 0-.11-.116c-.015-.018-.026-.029-.043-.046l-.08-.086-.04-.042-.088-.094-.035-.037-.24-.256-.038-.041a7.43 7.43 0 0 1-.084-.09l-.043-.046-.082-.087-.039-.042-.113-.121-.01-.01-.116-.125-.04-.044-.079-.084-.046-.05-.077-.082-.044-.048-.113-.122-.004-.005-.116-.125-.048-.052-.073-.078-.048-.053-.077-.083-.04-.044-.107-.114-.017-.02-.112-.121-.047-.05-.072-.08-.047-.051-.078-.085-.043-.046-.105-.114-.012-.014-.117-.128-.038-.041-.083-.092-.041-.045a9.963 9.963 0 0 1-.078-.086l-.044-.047-.094-.103-.032-.035-.105-.116-.05-.056-.067-.072-.052-.058-.071-.078-.046-.051-.104-.115-.012-.013-.115-.127-.042-.048-.078-.086-.044-.048a9.242 9.242 0 0 0-.118-.13l-.102-.114-.016-.018a18.891 18.891 0 0 0-.114-.127l-.043-.049-.077-.085-.04-.045-.083-.093-.039-.042-.105-.118-.011-.012-.115-.129-.04-.045-.08-.09-.042-.046-.076-.086-.043-.048a12.89 12.89 0 0 1-.095-.107l-.022-.024-.114-.128-.04-.047-.077-.086-.043-.048-.078-.089-.04-.045-.11-.124-.005-.005-.116-.133a1.342 1.342 0 0 1-.035-.04l-.084-.095-.038-.042-.085-.097-.032-.037a16.991 16.991 0 0 1-.104-.118l-.015-.017-.113-.129-.042-.047-.076-.088-.042-.047-.076-.087-.044-.05-.09-.103-.023-.027-.112-.128a2.046 2.046 0 0 1-.043-.05l-.075-.085-.046-.053c-.02-.025-.047-.055-.068-.079l-.048-.055-.077-.089-.04-.045-.106-.123-.05-.057-.065-.076-.05-.058-.067-.077-.05-.057-.084-.098-.027-.032-.11-.127-.046-.055-.07-.08-.048-.056-.066-.077-.049-.057a16.37 16.37 0 0 0-.079-.092l-.035-.04-.107-.126-.048-.056-.068-.08-.045-.052-.072-.084-.046-.054a8.351 8.351 0 0 1-.072-.085l-.042-.049-.105-.124-.048-.056-.068-.08-.048-.056-.066-.078-.049-.057-.077-.092-.035-.04-.11-.13-.04-.049-.071-.084-.048-.057a7.125 7.125 0 0 1-.067-.08l-.047-.055-.079-.093a17.473 17.473 0 0 1-.14-.166l-.049-.06-.064-.076-.051-.06a6.458 6.458 0 0 0-.063-.075l-.05-.059-.071-.086-.041-.049-.104-.124-.052-.062-.061-.073a6.925 6.925 0 0 0-.115-.138l-.048-.058-.074-.088-.038-.046-.105-.127-.045-.055-.069-.082-.047-.057-.065-.078-.049-.059a7.135 7.135 0 0 0-.067-.082l-.045-.054-.102-.124-.054-.065-.056-.069-.054-.064-.062-.076a4.17 4.17 0 0 0-.048-.058l-.074-.09-.036-.044-.105-.128-.048-.059-.064-.078-.048-.059-.066-.08-.046-.055-.072-.09-.04-.048-.105-.128-.039-.048-.074-.091a1.78 1.78 0 0 1-.039-.049l-.077-.093-.037-.046-.083-.103-.029-.035-.107-.133-.036-.044-.076-.094-.043-.052-.068-.084-.044-.055-.075-.093-.035-.044a18.13 18.13 0 0 1-.143-.178l-.073-.09-.045-.055-.067-.084-.045-.056-.076-.095-.032-.04a18.45 18.45 0 0 1-.107-.134l-.034-.042-.079-.098-.036-.046-.076-.095-.036-.045-.085-.106-.027-.034-.106-.134-.039-.048-.07-.09-.044-.054-.069-.087-.043-.054-.075-.094-.033-.042-.106-.134-.032-.041-.08-.1-.038-.05-.069-.086-.043-.055-.076-.096a18.567 18.567 0 0 0-.137-.175l-.04-.05a8.322 8.322 0 0 0-.111-.142l-.07-.09-.04-.051-.085-.108-.021-.027-.109-.139-.03-.04-.079-.1-.04-.05c-.023-.03-.045-.06-.07-.09a2.04 2.04 0 0 0-.04-.052l-.078-.1-.03-.04-.105-.134-.032-.041-.078-.101-.035-.046-.075-.096-.039-.05-.076-.098-.031-.041-.104-.135-.035-.045-.074-.096-.04-.052-.068-.088-.042-.055-.072-.094-.036-.046-.103-.135-.03-.04-.077-.1-.04-.052-.069-.09a17.062 17.062 0 0 1-.12-.157l-.026-.033-.104-.138-.035-.045-.073-.096a2.072 2.072 0 0 0-.04-.054l-.068-.088-.04-.053-.076-.1-.03-.041-.104-.136-.034-.044-.072-.096a5.976 5.976 0 0 0-.11-.144l-.039-.053a9.602 9.602 0 0 1-.074-.099l-.031-.04a13.741 13.741 0 0 0-.104-.138l-.029-.038-.08-.106c-.013-.02-.02-.03-.036-.048l-.069-.093-.04-.053a9.095 9.095 0 0 0-.07-.095l-.037-.048-.1-.134-.036-.048a8.899 8.899 0 0 0-.07-.093l-.041-.056-.066-.087-.04-.056a9.223 9.223 0 0 1-.073-.097l-.032-.043-.102-.137-.03-.04-.077-.104-.038-.051-.066-.09-.042-.055c-.023-.031-.046-.064-.07-.094l-.035-.05c-.035-.045-.066-.088-.1-.135l-.032-.043-.073-.1-.038-.05-.07-.095-.039-.053-.068-.093-.037-.05-.1-.135-.032-.044-.073-.1-.04-.055-.063-.085-.044-.06-.065-.09-.038-.052-.1-.136-.03-.043-.072-.098a2.298 2.298 0 0 1-.042-.057l-.064-.088-.041-.057a13.34 13.34 0 0 0-.068-.093l-.035-.049-.1-.137-.03-.043a7.26 7.26 0 0 1-.074-.101l-.04-.054a8.375 8.375 0 0 0-.065-.09l-.038-.054c-.022-.031-.05-.067-.072-.099l-.033-.046-.1-.137-.033-.048a8.349 8.349 0 0 1-.067-.093l-.044-.061a6.344 6.344 0 0 1-.06-.083l-.045-.064-.06-.082-.042-.06-.082-.113a3.383 3.383 0 0 0-.05-.07l-.068-.095-.04-.058c-.02-.026-.042-.058-.06-.084a3.72 3.72 0 0 1-.045-.063l-.06-.083a3.621 3.621 0 0 0-.044-.062l-.076-.107a4.287 4.287 0 0 1-.057-.08l-.062-.088-.046-.063a4.594 4.594 0 0 0-.056-.08l-.047-.066-.061-.087-.038-.052-.085-.122-.045-.062-.07-.1-.04-.056-.06-.086-.043-.061-.062-.088-.04-.058-.073-.102a7.685 7.685 0 0 0-.064-.091l-.058-.083a2.903 2.903 0 0 1-.045-.065l-.057-.082c-.02-.026-.027-.038-.045-.064l-.06-.084-.04-.059a11.588 11.588 0 0 1-.128-.183l-.07-.099-.038-.056-.06-.087-.044-.062-.062-.089-.038-.055-.09-.13-.03-.043-.076-.11-.038-.056-.063-.09-.041-.06c-.022-.031-.043-.06-.064-.092l-.035-.05-.08-.116-.047-.068-.07-.103-.037-.054-.063-.091-.04-.059-.064-.093-.037-.054-.076-.11-.047-.07-.072-.104-.037-.054-.062-.092-.041-.06-.062-.09-.037-.055-.076-.112-.046-.067a7.655 7.655 0 0 0-.073-.108l-.038-.056c-.019-.026-.04-.06-.059-.087l-.043-.063-.059-.086-.041-.062-.067-.098-.059-.088-.063-.094-.044-.065a5.813 5.813 0 0 0-.056-.082l-.043-.065-.06-.088a2.754 2.754 0 0 0-.037-.056l-.07-.103-.056-.084-.066-.098a6.455 6.455 0 0 1-.098-.146l-.042-.064a6.768 6.768 0 0 0-.058-.087l-.04-.06-.068-.101-.053-.08-.068-.102a2.224 2.224 0 0 0-.04-.06l-.06-.09-.04-.06-.06-.09-.038-.058-.072-.108a2.586 2.586 0 0 1-.041-.063l-.078-.117-.036-.055-.06-.09-.041-.063-.057-.087a3.336 3.336 0 0 0-.041-.062l-.07-.106-.042-.063-.075-.115-.04-.061-.057-.087-.043-.064-.057-.087a2.167 2.167 0 0 0-.038-.059l-.068-.104-.049-.074-.072-.11-.037-.057-.06-.092-.038-.059-.061-.093-.038-.058c-.02-.033-.044-.068-.065-.1l-.049-.075a15.608 15.608 0 0 0-.071-.111l-.04-.061-.057-.088-.042-.065-.055-.085-.04-.062-.068-.105-.038-.06-.082-.126-.034-.053-.06-.092-.04-.063-.058-.09-.038-.06-.064-.1-.046-.07-.074-.117-.04-.061-.056-.09-.04-.062-.06-.093-.034-.053-.076-.12-.02-.03-.09-.144-.037-.056-.058-.092-.039-.062a5.405 5.405 0 0 1-.058-.09l-.038-.06-.061-.098-.046-.072a9.258 9.258 0 0 0-.076-.12l-.036-.057-.06-.095-.038-.06a6.885 6.885 0 0 0-.057-.09l-.037-.06-.064-.103-.038-.058-.082-.132-.035-.055-.058-.093-.04-.063-.055-.09-.04-.061-.064-.104-.027-.044-.09-.143-.035-.057-.058-.094-.039-.06-.059-.096-.033-.054-.067-.108-.03-.047-.088-.142-.03-.049-.063-.102-.033-.055-.065-.104-.03-.048-.07-.113-.025-.04-.088-.144-.033-.055-.06-.097-.037-.06-.06-.096-.032-.053-.07-.117-.023-.036-.09-.149-.026-.042-.066-.107-.035-.056-.059-.098-.034-.057-.063-.102-.03-.05-.086-.142-.036-.059-.057-.094-.037-.061-.06-.098-.03-.05-.071-.12-.022-.035-.09-.149-.024-.041-.067-.11a6.733 6.733 0 0 0-.095-.158l-.03-.05-.069-.115-.023-.039-.09-.15-.021-.035a11.638 11.638 0 0 0-.072-.12l-.027-.046a9.784 9.784 0 0 1-.065-.11l-.029-.047-.07-.119-.022-.035c-.03-.05-.06-.104-.09-.153l-.02-.032-.07-.117-.032-.055-.06-.103-.032-.052-.07-.12-.02-.032-.09-.152-.022-.039-.066-.113-.033-.055-.062-.105-.027-.046-.074-.126-.017-.03c-.03-.05-.062-.103-.09-.153l-.02-.034-.07-.12-.028-.046-.066-.114-.026-.045-.072-.123-.019-.032-.09-.153-.019-.034-.07-.12-.03-.05-.06-.106-.03-.05-.069-.12-.02-.036-.09-.153-.02-.036-.067-.116a2.326 2.326 0 0 0-.031-.054l-.06-.103a2.29 2.29 0 0 1-.03-.055l-.064-.108-.026-.046-.085-.15-.027-.045-.062-.108a8.166 8.166 0 0 1-.091-.16l-.03-.05c-.021-.04-.045-.08-.067-.12l-.021-.037-.088-.153-.02-.035-.067-.118-.03-.054-.06-.103-.031-.056-.06-.107-.028-.047-.085-.15-.022-.04-.066-.117-.03-.053-.059-.103-.03-.054-.064-.114-.023-.042-.087-.153-.02-.037-.066-.117-.03-.053-.06-.108-.028-.049-.069-.123-.018-.032-.087-.156-.018-.034-.068-.121-.029-.05a8.994 8.994 0 0 1-.061-.112l-.026-.046-.066-.118-.023-.042-.084-.152-.022-.04-.065-.116-.028-.052-.06-.107-.029-.054a7.345 7.345 0 0 1-.061-.111l-.026-.045-.082-.151-.025-.044a7.786 7.786 0 0 0-.093-.17 6.06 6.06 0 0 1-.055-.1l-.031-.057c-.022-.04-.042-.078-.065-.117l-.02-.038a18.727 18.727 0 0 1-.086-.158l-.013-.023-.07-.13-.03-.055a7.823 7.823 0 0 0-.057-.102l-.03-.058a8.24 8.24 0 0 1-.057-.104l-.03-.053-.08-.15-.026-.048c-.02-.034-.04-.072-.058-.106l-.035-.064-.051-.096-.032-.058-.061-.114-.024-.043-.083-.155-.018-.032-.067-.125a1.49 1.49 0 0 0-.027-.05l-.059-.11-.028-.052c-.02-.04-.041-.078-.063-.118l-.02-.038-.087-.161-.004-.009-.08-.15-.02-.036c-.02-.04-.045-.086-.067-.126l-.02-.04-.07-.13-.016-.03-.087-.163-.005-.01-.077-.145-.024-.047-.061-.113-.026-.05-.063-.12-.02-.039a18.531 18.531 0 0 1-.084-.158l-.013-.025-.07-.133-.025-.048-.06-.115-.024-.045-.065-.125-.02-.037-.084-.16-.01-.017a11.506 11.506 0 0 0-.072-.14l-.023-.044-.063-.12-.023-.044-.062-.12-.022-.043-.082-.157-.013-.025-.07-.135-.024-.047-.06-.115-.024-.047-.062-.12-.021-.042-.084-.16-.003-.008-.077-.148-.025-.05-.057-.111-.028-.054-.057-.113-.024-.046-.081-.158-.011-.022-.07-.137-.024-.047-.06-.118-.023-.043-.065-.13-.017-.033-.084-.163-.003-.007-.077-.151-.022-.045-.059-.117-.026-.051a9.053 9.053 0 0 1-.057-.113l-.024-.048-.08-.159-.008-.016c-.024-.046-.05-.096-.072-.142l-.026-.052-.054-.108-.03-.057-.052-.107-.028-.054-.078-.157-.01-.021-.068-.135-.028-.057-.053-.106-.03-.058c-.016-.035-.036-.073-.053-.108l-.025-.051-.078-.157-.014-.03-.065-.13-.027-.054-.053-.107-.027-.056-.056-.111-.025-.052-.078-.157-.01-.021-.068-.139-.024-.05-.056-.113-.026-.054-.055-.11-.025-.051-.077-.158-.01-.023-.068-.139-.025-.049-.055-.113-.025-.053-.056-.114-.024-.05-.154-.318-.026-.053-.052-.108-.03-.06-.05-.106-.026-.054-.076-.157-.013-.029-.063-.131-.028-.057-.051-.107-.027-.055-.055-.115-.023-.049-.076-.16-.007-.012-.07-.149-.023-.048-.055-.116-.026-.053a8.753 8.753 0 0 0-.053-.112l-.024-.052a14.386 14.386 0 0 1-.076-.16l-.003-.005-.075-.158-.02-.042a9.997 9.997 0 0 0-.08-.171l-.056-.119-.021-.046-.152-.322-.023-.05c-.02-.04-.035-.074-.054-.115l-.025-.053-.055-.117-.02-.046-.153-.325-.021-.046c-.019-.04-.036-.08-.056-.12l-.021-.047-.057-.122-.021-.045-.152-.328-.017-.037-.059-.128-.021-.047-.056-.12-.02-.046c-.05-.106-.102-.221-.15-.328l-.02-.042-.056-.123-.022-.048-.056-.121-.02-.045-.15-.327-.02-.045-.053-.12-.025-.054-.05-.11-.025-.055-.146-.324-.021-.048c-.02-.042-.036-.079-.054-.12l-.021-.047-.057-.126-.019-.041a93.33 93.33 0 0 0-.147-.33l-.019-.042a10.707 10.707 0 0 1-.056-.125l-.021-.049-.053-.117-.022-.05-.146-.33-.016-.035-.059-.133-.018-.042-.058-.13-.017-.039-.147-.334-.014-.033-.06-.136-.018-.04-.058-.134-.015-.034-.147-.337-.014-.031-.06-.138-.017-.039-.057-.133-.017-.038c-.046-.107-.1-.228-.145-.335l-.014-.033-.059-.135-.018-.043-.054-.126-.02-.045-.143-.334-.015-.036-.056-.13-.02-.047-.054-.125-.019-.044-.141-.333-.018-.04-.053-.126-.021-.052-.05-.118-.022-.05-.064-.153-.006-.012-.07-.167-.016-.038-.056-.132-.017-.042-.054-.129-.02-.045-.067-.162-.001-.002-.071-.17-.014-.033-.056-.137-.02-.044-.051-.126-.02-.044-.14-.34-.009-.021-.06-.146-.017-.042-.054-.13-.017-.042-.14-.339-.011-.028-.058-.14-.017-.044-.054-.13-.016-.04a73.82 73.82 0 0 1-.139-.34l-.011-.03a10.26 10.26 0 0 1-.057-.138l-.018-.043-.054-.133-.015-.038-.138-.343-.01-.022c-.021-.054-.037-.094-.06-.148l-.014-.038-.054-.134-.016-.04a75.678 75.678 0 0 1-.137-.343l-.009-.02-.059-.148-.016-.04-.053-.134-.016-.04-.136-.343-.008-.021-.06-.149-.015-.04-.052-.131-.016-.042-.136-.346-.006-.014-.062-.156-.012-.033-.057-.146-.011-.028-.137-.351-.005-.011-.062-.162-.011-.028-.055-.143-.015-.037-.202-.523-.009-.024-.056-.147-.013-.035-.134-.347-.007-.019-.058-.152-.014-.038c-.02-.049-.034-.09-.053-.138l-.014-.036-.132-.349-.006-.015-.059-.156-.013-.035a12.17 12.17 0 0 0-.053-.14l-.014-.038-.13-.348-.006-.014a15.96 15.96 0 0 0-.06-.16l-.011-.03-.053-.143-.014-.037-.13-.35-.004-.01-.06-.163-.012-.031-.054-.145-.012-.034-.13-.35-.005-.014-.057-.157-.015-.04c-.018-.05-.03-.084-.05-.134l-.015-.043-.058-.159-.004-.01a24.5 24.5 0 0 0-.065-.178l-.007-.02-.056-.153-.012-.034-.052-.144-.013-.035-.127-.351-.005-.014-.058-.161-.01-.03-.052-.143-.014-.039-.189-.527-.01-.027-.053-.15-.01-.032c-.062-.172-.128-.356-.188-.529l-.01-.03-.054-.148-.01-.03-.187-.535-.008-.02a15.61 15.61 0 0 1-.056-.16l-.007-.021-.19-.544-.003-.01c-.018-.056-.037-.11-.057-.166l-.008-.022-.185-.54-.007-.02-.054-.159-.009-.024-.183-.539-.008-.022-.052-.155-.01-.029-.182-.54-.006-.016-.054-.16-.008-.028-.18-.54-.007-.019a14.72 14.72 0 0 1-.052-.157l-.01-.029-.178-.54-.006-.02a15.037 15.037 0 0 1-.053-.158l-.009-.028c-.06-.18-.118-.36-.176-.54l-.007-.02-.052-.161-.008-.024-.176-.544-.005-.017-.053-.164-.007-.023-.174-.542-.009-.026c-.015-.05-.03-.1-.047-.15l-.012-.037-.05-.16-.005-.015-.115-.362-.007-.026a13.906 13.906 0 0 1-.05-.154l-.008-.03c-.019-.057-.037-.116-.054-.172l-.002-.003-.114-.365-.009-.028-.045-.148-.013-.04-.049-.157-.005-.017-.112-.364-.008-.022c-.016-.056-.03-.1-.048-.157l-.01-.031-.052-.172v-.003l-.114-.37-.006-.018a12.65 12.65 0 0 0-.048-.158l-.01-.032-.052-.173v-.001a82.743 82.743 0 0 1-.113-.373l-.004-.012-.05-.165-.009-.03-.163-.546-.005-.018-.048-.158-.01-.034-.05-.166-.002-.01-.11-.37-.004-.017-.05-.164-.006-.026c-.054-.183-.11-.37-.162-.553l-.002-.007a14.435 14.435 0 0 1-.05-.17l-.008-.027-.05-.175-.001-.003a80.164 80.164 0 0 1-.108-.372l-.005-.018-.047-.162-.008-.03-.05-.172v-.004l-.107-.372-.006-.02-.045-.158-.01-.034-.047-.168-.003-.008-.105-.375-.003-.01-.048-.17-.007-.026-.048-.171-.002-.008a70.948 70.948 0 0 1-.104-.373l-.006-.018-.044-.16-.01-.035-.044-.16-.005-.018a70.167 70.167 0 0 1-.102-.37l-.005-.018-.044-.163-.01-.031-.045-.169-.003-.009-.101-.373-.005-.018-.044-.162-.008-.03-.045-.168-.004-.013a69.88 69.88 0 0 1-.1-.374l-.004-.012-.045-.17-.007-.026-.046-.17-.003-.01-.1-.377-.002-.01-.045-.17-.008-.029-.044-.168-.003-.012-.1-.377-.001-.007-.046-.175-.006-.023-.046-.179v-.002l-.099-.38-.003-.01-.043-.168-.008-.032-.041-.16-.006-.023-.096-.374-.002-.009-.044-.172-.007-.027-.042-.168-.004-.015-.096-.378-.001-.004-.044-.175-.007-.03-.043-.17-.002-.01-.095-.38-.001-.005-.043-.174-.008-.03a17.985 17.985 0 0 0-.042-.17l-.002-.01-.093-.38-.003-.01a14.705 14.705 0 0 0-.04-.168l-.01-.034-.038-.159-.006-.025-.09-.373-.003-.013c-.015-.058-.027-.11-.04-.168l-.01-.033-.038-.164-.004-.017-.091-.38-.043-.178-.007-.033-.039-.16-.005-.023-.089-.375-.003-.014-.038-.166-.01-.037-.037-.16-.004-.02-.088-.376-.004-.018-.037-.16-.01-.042-.036-.155-.005-.025-.087-.378v-.002a19.663 19.663 0 0 1-.041-.18l-.006-.027-.038-.165-.005-.022-.085-.377-.003-.013-.037-.166-.009-.04-.035-.155-.005-.026-.084-.376-.003-.012-.038-.17-.007-.033-.036-.166-.004-.016a70.251 70.251 0 0 0-.084-.382v-.005l-.04-.178-.006-.028a16.738 16.738 0 0 1-.037-.172l-.002-.01-.084-.385v-.005a17.308 17.308 0 0 1-.039-.177l-.006-.031-.035-.161-.005-.025a88.18 88.18 0 0 1-.08-.38l-.002-.005-.037-.174-.008-.038-.032-.153-.007-.032-.078-.374-.004-.02-.034-.162-.008-.04-.032-.155-.006-.028-.078-.376-.004-.017-.033-.163-.009-.044-.03-.146-.008-.04-.075-.372-.003-.012-.035-.173-.007-.032-.031-.16-.006-.028-.076-.38-.001-.005-.035-.175-.007-.038-.031-.156-.006-.029-.074-.38v-.003a15.532 15.532 0 0 1-.035-.177l-.008-.04-.03-.151-.007-.034c-.01-.059-.023-.122-.034-.181v-.003a20.752 20.752 0 0 1-.038-.193l-.002-.013a15.17 15.17 0 0 1-.033-.169l-.008-.04-.028-.151-.008-.036a84.92 84.92 0 0 0-.071-.376l-.002-.01-.033-.175-.006-.033-.03-.16-.005-.027-.106-.566-.006-.033-.029-.158-.006-.032-.103-.566-.006-.028-.03-.165-.004-.025c-.033-.184-.07-.383-.102-.567l-.006-.034-.03-.164-.003-.021-.101-.573-.005-.026-.028-.166-.006-.026-.098-.568-.005-.033-.028-.161-.005-.028-.097-.57-.005-.03c-.01-.052-.019-.112-.028-.165l-.004-.024-.03-.183-.002-.006-.063-.38-.006-.034-.026-.161-.005-.03-.093-.568-.005-.033-.026-.162-.005-.027-.03-.186v-.002l-.061-.38-.007-.041-.024-.151-.005-.037-.028-.175-.002-.01-.06-.381-.005-.036-.025-.156-.005-.034-.027-.174-.001-.014c-.02-.126-.04-.251-.058-.377l-.008-.044-.022-.148-.006-.041-.025-.164-.003-.022-.03-.193v-.006l-.027-.178-.006-.044-.022-.142-.007-.05a12.509 12.509 0 0 1-.023-.153l-.004-.032c-.01-.066-.02-.124-.029-.19v-.005l-.027-.178-.006-.047-.022-.146-.006-.04-.025-.174-.001-.011-.055-.38-.006-.043-.021-.148-.006-.042-.023-.16-.004-.028a20.88 20.88 0 0 1-.027-.192v-.005c-.01-.06-.018-.119-.026-.178l-.006-.046-.02-.145-.007-.047-.021-.155-.005-.03-.052-.378-.005-.04-.02-.15-.006-.043-.022-.161-.003-.026a70.775 70.775 0 0 1-.052-.379l-.005-.04-.02-.15-.006-.044-.021-.16-.003-.026-.05-.38-.006-.04a11.56 11.56 0 0 0-.02-.15l-.004-.043c-.008-.053-.014-.107-.021-.16l-.004-.028-.025-.193v-.001l-.023-.182-.006-.05-.018-.14-.006-.05-.02-.154-.004-.032a78.998 78.998 0 0 0-.047-.379l-.005-.04-.019-.15-.005-.045-.019-.153-.004-.036-.024-.19-.021-.183-.007-.054-.016-.135a10.813 10.813 0 0 0-.024-.198l-.005-.044-.022-.189-.001-.004a16.758 16.758 0 0 1-.02-.178l-.007-.057c-.006-.046-.01-.087-.017-.134l-.006-.053-.016-.143-.006-.047-.021-.187v-.003l-.022-.181-.005-.051-.016-.141-.006-.05-.017-.15-.004-.038-.042-.376-.006-.048-.015-.14-.006-.056-.015-.138-.006-.05-.04-.37-.007-.058-.013-.13-.007-.062a9.439 9.439 0 0 0-.015-.134l-.005-.052-.02-.186v-.009c-.007-.054-.013-.12-.019-.174-.003-.025-.003-.035-.007-.06l-.013-.13-.006-.059a8.977 8.977 0 0 0-.014-.132l-.006-.06-.018-.18-.002-.023a13.243 13.243 0 0 1-.017-.16l-.007-.069a7.168 7.168 0 0 0-.02-.19l-.011-.116a17.03 17.03 0 0 1-.025-.25l-.001-.015-.017-.172-.006-.056-.012-.13-.007-.063-.012-.131-.006-.058-.035-.368-.006-.06-.012-.132-.006-.057-.013-.142-.004-.045a71.859 71.859 0 0 1-.035-.375l-.006-.056a8.54 8.54 0 0 0-.017-.193l-.012-.133-.005-.056-.033-.367a8.402 8.402 0 0 0-.017-.192l-.005-.063-.012-.129-.005-.06-.016-.18v-.008l-.016-.182-.005-.06-.01-.127c-.003-.017-.005-.047-.007-.064-.003-.04-.008-.091-.01-.132l-.005-.057a70.02 70.02 0 0 1-.036-.43l-.01-.13-.006-.064a9.052 9.052 0 0 0-.01-.129l-.005-.058c-.004-.054-.01-.113-.013-.167l-.003-.03-.014-.172-.005-.067-.01-.12-.005-.07-.01-.121-.005-.07c-.004-.048-.008-.096-.01-.143l-.006-.067a11.604 11.604 0 0 0-.012-.15l-.006-.079-.008-.111a2.71 2.71 0 0 1-.005-.075l-.01-.116-.005-.071-.01-.148-.004-.048-.012-.171c-.002-.026-.004-.037-.005-.063a7.967 7.967 0 0 1-.009-.124l-.005-.07a7.697 7.697 0 0 1-.009-.122l-.005-.067-.012-.163v-.021c-.005-.061-.01-.12-.013-.182l-.006-.07-.007-.117-.006-.075a7.295 7.295 0 0 1-.008-.118l-.005-.067-.01-.147-.003-.053a14.598 14.598 0 0 0-.016-.238l-.008-.115a2.928 2.928 0 0 0-.005-.077l-.007-.114-.005-.075-.009-.136-.004-.057-.01-.168-.005-.076-.007-.114-.005-.077-.007-.113a10.271 10.271 0 0 0-.013-.212l-.003-.054-.01-.171a3.013 3.013 0 0 0-.005-.076l-.007-.11-.004-.08-.007-.11-.005-.079-.007-.134-.004-.05-.01-.176-.004-.08-.006-.109-.005-.08-.006-.108-.004-.08-.007-.124-.004-.08a13.132 13.132 0 0 0-.009-.158l-.004-.077a6.047 6.047 0 0 1-.006-.109l-.004-.082-.006-.107-.004-.083-.006-.11a7.519 7.519 0 0 0-.006-.12l-.006-.125-.005-.092a4.476 4.476 0 0 0-.005-.095l-.005-.093-.004-.091-.005-.095a4.97 4.97 0 0 1-.004-.096l-.007-.144-.006-.114-.004-.09a4.806 4.806 0 0 0-.005-.097l-.004-.09a4.511 4.511 0 0 1-.004-.095l-.005-.093-.004-.106-.005-.103a10.663 10.663 0 0 1-.01-.24l-.005-.091-.004-.092-.004-.097c0-.025-.003-.063-.004-.088a6.423 6.423 0 0 0-.005-.113l-.003-.09-.007-.154-.003-.092-.004-.095-.004-.09-.004-.097-.003-.093-.004-.096-.006-.153-.004-.102-.004-.1-.003-.089c-.002-.034-.003-.06-.003-.095l-.004-.091-.004-.094-.004-.101-.003-.118-.005-.136c-.001-.034-.003-.062-.003-.096a4.09 4.09 0 0 1-.004-.09l-.003-.096-.003-.09a4.93 4.93 0 0 0-.007-.199l-.002-.08a14.547 14.547 0 0 1-.009-.272l-.002-.083-.003-.101-.003-.083-.003-.104-.002-.078a28.092 28.092 0 0 1-.007-.236l-.001-.033a6.589 6.589 0 0 1-.003-.113l-.002-.071-.004-.107-.002-.08-.003-.107-.001-.068-.01-.392-.002-.07-.003-.11-.001-.072-.004-.112v-.072l-.006-.212-.001-.063-.002-.108-.002-.076-.002-.107-.002-.077-.002-.11-.002-.068-.007-.392-.002-.07-.002-.108-.001-.079-.002-.105-.001-.08-.007-.38-.001-.075-.001-.105-.002-.08-.001-.107-.001-.073-.006-.391v-.05a10.666 10.666 0 0 0-10.663-10.536z" style="fill:#14a142"/><ellipse cx="138.667" cy="138.667" rx="58.895" ry="47.116" transform="rotate(-45 138.667 138.667)" style="fill:#b7e8c4"/><circle cx="224" cy="224" r="10.667" style="fill:#66ce83"/><circle cx="202.667" cy="138.667" r="10.667" style="fill:#66ce83"/><circle cx="224" cy="117.333" r="10.667" style="fill:#d5f1dd"/><circle cx="181.333" cy="117.333" r="10.667" style="fill:#d5f1dd"/><circle cx="138.667" cy="160" r="10.667" style="fill:#d5f1dd"/><circle cx="160" cy="138.667" r="10.667" style="fill:#d5f1dd"/><circle cx="117.333" cy="138.667" r="10.667" style="fill:#d5f1dd"/><path d="M266.792 39.005c-.122 0-.245.002-.368.006a10.667 10.667 0 0 0-10.3 11.016l.001.02.002.04.003.111.002.053.005.138.002.036.004.122.002.053.004.11.001.042.006.142.002.053.004.106.002.048.005.145.002.037.005.116.002.05.004.115.002.057.006.125.002.053.005.108.002.044.006.143.002.052a5.1 5.1 0 0 1 .007.158l.006.138.002.039.005.112.003.06.005.1.002.05.006.14.003.056.005.098.003.055.006.14.003.048.005.104.003.058.005.103.004.07.005.117.003.052.006.109.002.046.008.142.002.05.006.102.003.055.008.142.002.034.006.117.003.055.006.112.002.037.008.141.003.056.006.102.003.051.008.142.003.045.006.105.004.055.007.12.002.043.008.132.003.05.007.11.003.041.009.145.002.046.007.105.004.057.009.14.002.032.008.118.003.052c.002.042.004.075.008.117l.002.034.01.144.003.05.007.109.003.043.01.145.003.041.007.114.004.046.01.143v.007l.01.149.004.046.007.112.004.043.01.145.003.041.008.111.003.049c.004.05.008.094.01.143l.003.034.009.117.004.054.008.11.004.04.01.138.005.058.007.1.004.05.01.142.004.042.01.112.002.046.01.13.004.04.01.126.004.05.009.114.003.037.012.146.004.043.008.107.005.054.011.142.002.027c.004.042.008.08.01.123l.005.05.01.12.003.03.012.145.004.046.01.112.003.04.013.146.003.037.01.12.004.041.012.13.004.045.01.121.005.05.01.111.004.042.013.142.004.047.01.107.004.046.014.148.002.02.012.131.004.043.012.135.002.015.014.147.005.048.01.112.004.04.014.147.004.032.011.122.004.04.013.137.004.034.012.127.005.048.011.113.004.037.015.146.004.04.01.11.006.052.014.14.004.036.012.114.005.05.013.121.002.028.015.145.005.045.012.115.004.036.016.147.004.037.012.117.005.043.015.146.003.02.013.128.006.049.013.116.003.034.016.146.005.04.012.113.005.044.016.145.004.03.013.119.006.05.013.122.002.025.017.143.006.05.012.11.004.04c.006.041.013.102.017.143l.005.041.013.11.005.048.016.136.004.035.015.123.006.045.014.123.003.026.018.146.005.044.013.107.006.05.017.142.004.03.014.119.006.047.017.136.001.01.018.15.005.04.015.119.004.033.018.145.006.042.013.11.006.047.017.135.005.04.015.116.006.048.015.117.005.033.018.143.006.045.014.107.006.047.019.143.004.03.015.12.006.044.02.142v.005l.019.144.006.05.015.112.005.037.02.145.005.036.016.118.005.038.02.148.003.02.018.13.005.041.018.125.003.026.02.144.007.045.014.106.007.049.02.142.004.026.017.126.006.037.02.144.001.007.02.146.007.045.017.116.005.033.02.143.007.044.016.11.006.044.021.143.004.027.018.12.007.048c.006.042.01.076.017.117l.005.031.021.145.006.039.017.113.006.042.022.143.004.031.018.12.007.043.02.135.003.016.02.137.008.052.017.11.006.037.022.143.006.038.018.116.005.038.023.145.005.03.019.119.007.046.02.124.003.022.023.145.007.042.017.11.007.043.023.145.004.025c.007.041.012.08.02.121l.007.046.022.136.002.015.023.138.007.048c.007.042.01.066.018.107l.007.041.022.14.008.044.017.108.008.045.023.138.006.042.018.107.008.048.02.121.005.026.024.145.007.038.02.118.005.034.025.147.004.026.021.122.007.042.05.29.008.046.021.12.004.025.026.149.005.03.022.124.005.031.026.15.003.017.024.133.005.035.025.14.002.009.026.149.006.032.022.122.006.035.026.146.005.024.022.126.007.036c.008.048.017.1.027.147v.008c.01.047.017.092.026.14l.007.039.023.128.004.02.027.147.006.035.022.115.007.04.027.144.004.024.022.121.009.045.024.127.003.02c.01.047.018.098.027.146l.008.036.02.113.008.04.026.14.008.041.02.105.01.052c.01.047.016.084.025.131l.006.03.022.118.01.053.021.106.007.04.027.136.009.05.02.1.009.046.026.139.008.037.022.111.009.046.025.132.003.01.028.143.009.048.02.1.01.05.026.135.01.048.018.093.012.058.025.124.008.04.023.114.01.054c.008.034.014.065.02.1l.01.044.027.133.01.053.02.095.011.055.026.129.011.053.02.093.01.054.023.11.01.044.025.124.011.057a5.02 5.02 0 0 1 .03.143l.028.132.01.053.02.093.012.055.029.136.005.025.024.116.012.053.021.104.008.04.03.137.01.046.022.103a9.236 9.236 0 0 0 .04.183l.006.033.025.117.009.04.028.13.003.015.03.14.01.048.021.096.013.055.028.131.01.046.022.1.01.048.03.135.008.037c.01.04.015.066.024.107l.012.056.022.1.01.041c.01.047.018.086.03.133l.011.054.022.095.01.05.03.134.01.044.022.098.013.055.024.107.012.051.026.12.012.05.022.095.01.05.032.135.009.04.024.106.011.048.031.136.008.034.024.105.013.056.025.107.008.034.031.136.011.047.026.108.007.034.034.142.008.035.026.111.01.044.031.131.003.012.033.14.01.043.026.11.009.037c.01.047.023.095.034.142l.007.03.027.114.01.042.033.14.007.024.028.118.011.048.028.113.006.029.034.138.01.042.027.11.01.038.032.135.012.05.023.094.012.051.028.11.013.057.028.11.012.05.025.1.01.044.033.133.012.048.024.096.013.053.033.133.009.034a6.637 6.637 0 0 0 .04.16l.028.11.007.028.035.14.01.04.027.107.01.041.034.132.013.05.024.098.013.048.031.121.01.037.028.115.015.055.023.09.015.056.031.126.015.054.023.09.013.052.035.133.01.039.026.101.014.054.028.105.009.034.034.133.015.054.023.088.014.056.034.128.013.05c.008.026.018.065.024.092l.015.054.03.113.013.047.03.113.013.05.025.095.013.05.035.127.015.055.022.086.016.059.033.121.015.057.024.087.016.059.026.098.012.046.034.123.016.059.023.084.015.055.035.127.015.056.024.085.015.058c.011.04.02.067.03.107l.017.06.026.098.017.06.023.082.016.059.035.124.015.058.024.083.016.058.035.127.014.047.025.092.017.06.025.087.02.073.029.1.017.064.023.08.017.06.035.121.017.063.022.078.017.06.029.098.021.076.026.09.017.06.025.085.014.052.038.128.015.053.025.088.016.055.038.13.011.039.028.096.018.06a4.58 4.58 0 0 0 .046.16l.03.103.017.058.025.085.016.054.036.124.017.059.025.082.017.059.03.104.02.066.028.093.017.058.025.084.017.058.037.122.017.057.024.083.017.056.038.127.015.05.026.086.019.063.027.09.02.066.03.101.02.063.025.082.016.055.038.124.018.059.024.08.018.06.028.09c.01.032.016.055.027.087l.025.083.02.063.022.073.025.081.032.103.018.06.024.078.02.064.037.12.02.065.02.065.023.075.021.067.034.107.023.075.022.069.023.074.019.059.037.12.02.065.024.074.02.062.03.098a4.303 4.303 0 0 1 .05.16l.02.062.026.078.022.072.036.112.016.05.029.09.017.053.04.124.016.053.027.083.02.064.027.082.026.082.03.09c.006.022.011.039.02.061l.025.082.018.057.039.117.022.069.023.07.02.06.033.103.023.071.03.09.018.054.03.093.014.043.041.127.019.054.026.083.02.058.04.123.018.055.025.075.024.07.024.076a4.788 4.788 0 0 1 .059.175l.022.067.022.066.023.068.038.113.024.07.022.068.023.068.025.073.036.11.022.065.024.07.021.062.046.134.016.05.026.076.02.058.024.072.029.084.035.103.02.058.026.076.022.064.037.111.024.067.025.075.02.057.048.14.016.045.028.08.017.051.026.076.025.07.037.108.024.07.024.069.022.062.044.126.019.055a2.992 2.992 0 0 1 .047.134l.026.075.026.075.04.113.017.049.029.08.017.049.052.146.015.042.029.084.016.043.097.274.016.046.03.082.015.044.051.144.017.047.03.082.015.044.055.153.014.039.03.084.016.041.03.085.001.002.067.185.018.049c.01.031.018.051.03.083l.012.034.06.164.01.03.033.088c.006.019.008.022.015.04l.102.28.014.038c.01.031.019.052.03.083l.015.041.056.152c.005.013.01.03.016.043l.03.084.014.037.063.17.008.021.033.09.014.036.104.281.013.035.034.09.008.023.062.165.016.042.032.086.013.033.104.278.018.048.03.08.01.026.064.168.013.035.033.087.012.031.068.18.007.017.033.087.015.04.107.279.013.033.035.092.005.013.069.18.012.03.033.087.015.04.066.17.008.02.034.087.014.036.033.087.007.017.068.175.015.037.033.088.01.024.074.19.003.008.035.09.015.036.113.287.008.021.038.097.003.006.076.193.008.021.037.093.012.029.113.285.012.03.115.29.009.022.039.096.004.01.08.197.003.011.038.094.01.025.117.289.01.027.119.29.009.023.036.09.014.033.119.291.004.01.124.304.006.015.04.097.006.013.125.304.004.01.127.305.004.012.127.303.005.013.173.414.005.011.13.309.002.003.177.42.002.004.13.307.005.011.13.305.004.008.043.101.003.007.133.31v.002c.045.1.09.205.133.306l.006.013.178.41.005.013.131.301.005.01.319.728.002.004.323.728.002.004.135.303.007.014q.792 1.768 1.617 3.522l.002.005a214.177 214.177 0 0 0 102.972 102.72 10.667 10.667 0 1 0 9.03-19.328A191.18 191.18 0 0 1 277.445 49.31a10.667 10.667 0 0 0-10.654-10.305zM107.127 263.633a10.668 10.668 0 0 0-2.979 20.911 180.572 180.572 0 0 1 130.468 169.778 10.666 10.666 0 0 0 10.659 10.417c.084 0 .17-.001.254-.003a10.667 10.667 0 0 0 10.415-10.885 202.151 202.151 0 0 0-11.507-62.826q-.543-1.536-1.11-3.057l-.001-.004-.215-.576-.002-.005-.053-.14-.001-.003-.162-.43-.004-.008-.05-.132-.005-.013-.217-.57-.003-.007-.218-.565-.007-.018-.218-.56-.006-.015-.051-.132-.003-.007-.164-.419-.01-.025-.047-.117-.007-.019-.167-.42-.004-.01-.051-.13-.006-.014c-.057-.143-.11-.277-.169-.42l-.004-.01a11.008 11.008 0 0 0-.053-.133l-.003-.008-.171-.426h-.001l-.056-.14-.003-.007-.055-.135-.003-.007-.173-.423-.002-.007-.055-.133-.004-.01-.174-.421-.003-.009a10.72 10.72 0 0 0-.054-.128l-.005-.015-.174-.418-.004-.01-.053-.128-.007-.016c-.02-.047-.035-.081-.054-.129l-.003-.008-.174-.414-.01-.022-.05-.118-.007-.019-.117-.276-.002-.005-.054-.128-.01-.025-.05-.116-.008-.018-.176-.41-.008-.021-.052-.12-.007-.017-.055-.129-.003-.007-.12-.278-.005-.01-.054-.126-.008-.017a8.65 8.65 0 0 0-.054-.126l-.004-.01-.12-.276-.007-.015a7.982 7.982 0 0 0-.052-.12l-.01-.022-.05-.115-.01-.022a49.617 49.617 0 0 0-.12-.273l-.002-.007-.056-.126-.01-.022-.05-.115-.01-.023-.18-.409-.007-.013-.053-.118-.01-.025-.056-.123-.003-.009-.121-.27-.011-.025-.049-.108-.014-.032-.051-.115-.007-.014-.122-.27-.01-.024-.048-.106-.016-.035-.047-.104-.013-.028-.122-.27-.003-.005c-.02-.047-.037-.08-.058-.128l-.009-.019a9.373 9.373 0 0 0-.053-.117l-.009-.02-.06-.13v-.002a52.63 52.63 0 0 0-.124-.27l-.011-.025a6.912 6.912 0 0 1-.052-.112l-.01-.022c-.02-.04-.04-.086-.058-.126l-.003-.005-.125-.27-.011-.025-.05-.11-.012-.024-.054-.116-.008-.018-.125-.266-.01-.023-.053-.113-.01-.022-.054-.113-.01-.022-.125-.267-.01-.02-.05-.11-.016-.032-.047-.1-.016-.034a8.81 8.81 0 0 1-.059-.124l-.001-.002-.064-.134-.01-.02a11.457 11.457 0 0 0-.052-.11l-.015-.034-.047-.098-.017-.034-.051-.11-.01-.02-.064-.133-.003-.006a8.496 8.496 0 0 0-.058-.123l-.014-.029-.05-.102-.016-.035a5.659 5.659 0 0 1-.048-.1l-.014-.03-.059-.121-.01-.02a9.612 9.612 0 0 0-.056-.118l-.017-.034-.044-.092-.022-.045a6.749 6.749 0 0 0-.043-.088l-.019-.04-.057-.118-.004-.008-.064-.131-.012-.025a7.488 7.488 0 0 0-.05-.103l-.02-.039-.044-.092-.018-.037-.051-.104-.013-.025-.063-.13-.01-.02-.052-.107-.018-.036-.047-.096-.018-.036-.048-.096-.016-.034-.063-.127-.008-.017-.054-.109-.022-.044-.04-.083-.024-.047-.04-.08a1.77 1.77 0 0 0-.025-.05c-.04-.08-.082-.167-.123-.247l-.022-.044-.042-.084-.023-.047-.042-.083-.021-.043-.058-.116-.005-.01-.064-.128-.016-.03a6.954 6.954 0 0 0-.05-.099l-.017-.034-.047-.094-.02-.04-.054-.107-.009-.017a15.95 15.95 0 0 0-.065-.13l-.013-.024-.052-.103-.02-.037-.043-.088-.023-.044-.048-.095-.016-.03-.064-.128-.008-.016-.056-.109-.022-.043-.041-.08-.028-.053-.041-.082-.02-.04-.06-.114-.014-.029-.056-.107-.021-.041-.043-.084-.024-.046-.046-.089-.02-.037-.054-.106-.01-.02-.064-.124-.02-.04-.045-.085-.026-.05a4.493 4.493 0 0 0-.04-.077l-.025-.047a5.635 5.635 0 0 0-.046-.088l-.02-.038-.063-.122-.02-.037-.044-.085-.027-.053-.04-.074-.027-.051-.042-.081-.022-.043-.065-.122-.014-.028-.05-.095-.026-.047-.044-.084-.02-.039-.049-.091-.02-.038-.13-.246-.024-.044-.044-.083-.024-.046-.044-.082-.022-.043c-.019-.033-.037-.067-.054-.1l-.013-.025-.065-.12-.025-.046-.041-.078-.027-.05-.042-.077-.025-.048a5.842 5.842 0 0 1-.048-.089l-.018-.034-.065-.12-.024-.044a5.146 5.146 0 0 0-.044-.08l-.026-.05a4.239 4.239 0 0 1-.04-.076l-.028-.05-.04-.076-.028-.05-.046-.085-.047-.086a3.316 3.316 0 0 0-.036-.066l-.03-.054-.039-.072-.029-.053a4.154 4.154 0 0 0-.067-.123l-.052-.096-.028-.05-.053-.098-.022-.041-.045-.08-.027-.05-.043-.079-.025-.044a7.146 7.146 0 0 0-.053-.097l-.015-.026-.066-.121-.021-.039-.048-.085-.025-.045-.047-.085-.02-.037a7.114 7.114 0 0 0-.054-.097l-.017-.03-.067-.12-.02-.037a4.55 4.55 0 0 0-.074-.133l-.043-.078-.028-.049-.04-.073-.029-.05-.065-.117-.018-.032-.052-.093-.023-.042-.045-.08-.027-.048-.044-.077a1.36 1.36 0 0 0-.026-.047l-.068-.12v-.002l-.066-.116-.03-.05-.04-.074-.03-.051-.04-.072-.029-.051-.048-.085-.028-.049-.058-.103-.03-.053-.04-.069-.03-.053a3.829 3.829 0 0 0-.04-.07l-.032-.055a3.774 3.774 0 0 0-.04-.07l-.028-.05-.064-.112-.033-.057-.037-.066-.036-.06-.032-.056-.037-.066a2.475 2.475 0 0 1-.033-.057l-.036-.062-.064-.112-.027-.047a5.897 5.897 0 0 0-.043-.074l-.031-.053a3.822 3.822 0 0 1-.04-.068l-.032-.056-.042-.073-.025-.044a7.368 7.368 0 0 1-.056-.096l-.036-.06-.047-.083-.03-.052-.04-.065-.033-.06-.038-.065-.032-.055a4.633 4.633 0 0 1-.045-.077l-.03-.05-.063-.107-.026-.046-.044-.074-.032-.056-.038-.063-.033-.058-.039-.065-.033-.056-.066-.112-.031-.053-.037-.062-.039-.065-.032-.056-.037-.062-.036-.06c-.013-.022-.02-.036-.035-.058l-.062-.106-.037-.061-.036-.061-.038-.064-.034-.056-.036-.061-.036-.06-.036-.061-.041-.07-.058-.095-.036-.06-.037-.063-.037-.06-.035-.06-.034-.056a3.27 3.27 0 0 0-.039-.064l-.032-.054a10.68 10.68 0 0 1-.143-.237l-.031-.052-.04-.065-.032-.054-.04-.064-.036-.061-.034-.055-.034-.057-.075-.124-.027-.044a5.61 5.61 0 0 0-.043-.07l-.028-.047-.043-.07-.028-.047-.155-.253-.023-.036-.043-.07a5.327 5.327 0 0 0-.074-.12l-.025-.042-.046-.074-.015-.025-.093-.152-.028-.045a3.582 3.582 0 0 1-.04-.066l-.03-.048-.043-.07-.03-.048-.043-.069-.027-.044-.08-.128-.03-.049-.042-.068-.029-.046-.046-.074-.024-.04-.048-.075-.02-.033-.163-.261-.024-.037-.045-.072-.029-.047-.044-.07-.025-.04-.047-.076-.002-.002-.106-.168a1.525 1.525 0 0 0-.03-.049l-.045-.07-.027-.043a3.118 3.118 0 0 1-.045-.071l-.028-.044-.046-.073-.021-.033-.086-.137-.03-.047-.044-.07-.03-.046-.044-.07-.027-.042a4.73 4.73 0 0 0-.048-.075l-.018-.03-.172-.267-.018-.03-.05-.077-.023-.036-.052-.081-.012-.018-.173-.271-.024-.036-.05-.077-.02-.034-.052-.079-.021-.033-.168-.259-.022-.033-.05-.078-.022-.034-.053-.08-.018-.029-.054-.083-.005-.008-.117-.18-.016-.024-.05-.077-.024-.036-.048-.073-.028-.043-.048-.073-.016-.025-.113-.172-.01-.015-.05-.076a.872.872 0 0 1-.024-.037l-.05-.077-.024-.035-.049-.074-.026-.04-.088-.133-.03-.045a3.594 3.594 0 0 0-.042-.064l-.03-.047a3.348 3.348 0 0 1-.047-.07l-.029-.043-.048-.072-.024-.036-.176-.265-.014-.02-.055-.083-.02-.03-.051-.077-.025-.037-.182-.272-.009-.013-.052-.079-.025-.036-.05-.075-.023-.033-.053-.08-.014-.02-.184-.273-.017-.024-.054-.081-.02-.03-.056-.083-.01-.014-.192-.283-.012-.017-.059-.086-.015-.023a6.11 6.11 0 0 0-.057-.083l-.017-.026-.194-.282-.004-.005a4.93 4.93 0 0 0-.058-.085l-.02-.03-.056-.081-.015-.022-.186-.271-.016-.022-.056-.082-.017-.026-.057-.082-.019-.027a57.698 57.698 0 0 0-.262-.377l-.012-.017-.058-.085-.018-.026c-.02-.03-.036-.051-.057-.08l-.015-.023a51.107 51.107 0 0 0-.193-.276l-.01-.014-.058-.083-.02-.03-.058-.081-.01-.016-.19-.268-.02-.03a3.76 3.76 0 0 0-.052-.073l-.027-.038a3.764 3.764 0 0 0-.052-.073l-.02-.03-.262-.37-.016-.023-.06-.083-.015-.021-.062-.087v-.001l-.201-.283-.02-.027-.054-.076-.024-.034-.056-.078-.013-.018-.184-.255-.03-.043-.049-.069-.027-.037a5.097 5.097 0 0 1-.054-.075l-.021-.029-.183-.254-.022-.03-.054-.075-.025-.034-.055-.076-.022-.031-.056-.076-.01-.015-.126-.173-.012-.016-.06-.082-.016-.023-.06-.082-.018-.025-.264-.36-.024-.034-.056-.074-.022-.03c-.02-.03-.036-.05-.057-.079l-.014-.02-.197-.266-.015-.02-.06-.081-.02-.029-.059-.078-.017-.024c-.068-.09-.128-.172-.195-.263l-.016-.02c-.02-.029-.037-.051-.059-.08l-.02-.027-.057-.077-.023-.03-.266-.357-.022-.03c-.02-.025-.039-.051-.057-.076l-.02-.027-.061-.081-.002-.003-.207-.275-.02-.027-.059-.076-.022-.03-.059-.079-.013-.017-.201-.266-.016-.021-.06-.08-.02-.024-.06-.081-.017-.021-.2-.264-.014-.018-.06-.077-.023-.031-.059-.078-.016-.02-.206-.27-.01-.011a5.212 5.212 0 0 0-.063-.084l-.015-.02-.063-.082-.018-.022-.277-.359-.02-.025-.06-.078-.021-.028a4.383 4.383 0 0 0-.059-.076l-.017-.023-.198-.254-.021-.027a3.774 3.774 0 0 0-.055-.07l-.032-.041-.053-.068-.022-.03-.198-.252-.017-.022-.063-.08-.017-.02-.065-.084-.011-.015-.219-.277-.002-.004-.063-.08-.021-.026a6.619 6.619 0 0 1-.063-.08l-.015-.018-.282-.357-.022-.027a6.14 6.14 0 0 1-.058-.073l-.024-.031-.063-.079-.002-.003-.22-.275-.013-.016-.067-.084-.012-.015a8.055 8.055 0 0 0-.07-.087l-.005-.008-.227-.282-.072-.09-.01-.01c-.124-.157-.248-.31-.375-.466l-.012-.014-.065-.082-.02-.024-.29-.357-.012-.015-.07-.085-.01-.012a162.5 162.5 0 0 0-.303-.371l-.003-.004-.073-.089-.01-.012-.382-.464-.007-.009-.072-.086-.011-.014-.298-.36-.014-.017-.07-.083-.01-.012-.307-.369-.002-.002a16.1 16.1 0 0 1-.075-.09l-.007-.008-.303-.361-.014-.017-.066-.078-.02-.022a4.897 4.897 0 0 0-.065-.079l-.015-.018-.297-.352-.017-.019a5.518 5.518 0 0 1-.07-.082l-.007-.01c-.074-.085-.15-.176-.224-.262l-.013-.015-.065-.077-.02-.022-.066-.08-.016-.017-.3-.35-.015-.019-.069-.08-.016-.018-.068-.08-.011-.012-.23-.268-.003-.002-.074-.086-.013-.015-.309-.357-.008-.01-.072-.082-.013-.015-.072-.083-.009-.01-.31-.355-.013-.015-.071-.082-.01-.012-.314-.356-.008-.01a8.688 8.688 0 0 0-.073-.082l-.012-.014a80.114 80.114 0 0 0-.31-.35l-.013-.016-.075-.084-.006-.007-.319-.359-.006-.007-.071-.08-.018-.019-.069-.077-.017-.02-.308-.344-.012-.013-.074-.082-.011-.013-.31-.344-.019-.021a7.394 7.394 0 0 0-.068-.075l-.018-.02-.071-.08-.004-.004-.322-.354-.013-.014-.074-.082-.007-.007-.235-.258-.01-.012-.073-.079-.016-.017a5.057 5.057 0 0 0-.07-.076l-.018-.02-.309-.337-.02-.021-.07-.077-.012-.012-.319-.346-.012-.012a8.026 8.026 0 0 0-.072-.078l-.018-.019-.317-.342-.01-.01-.076-.082-.01-.012a5.954 5.954 0 0 1-.077-.082l-.007-.006-.247-.264-.075-.08-.018-.02-.073-.077-.008-.01-.326-.346-.01-.01-.077-.081-.01-.01-.325-.344-.01-.01c-.028-.03-.05-.054-.079-.083l-.006-.007-.416-.436-.01-.01-.335-.349-.001-.001-.081-.085-.007-.007-.42-.434-.008-.009-.081-.084-.002-.002a114.76 114.76 0 0 0-.341-.35v-.001l-.084-.085-.007-.008-.336-.343-.005-.005-.081-.083-.007-.008-.083-.083c-.086-.089-.17-.174-.257-.261l-.002-.003a6.348 6.348 0 0 0-.082-.082l-.008-.01-.083-.082-.342-.346-.007-.007-.081-.081-.008-.008-.339-.34-.005-.005c-.173-.174-.34-.341-.515-.514l-.012-.012c-.17-.17-.346-.342-.517-.512l-.004-.003-.34-.336-.013-.012-.082-.08-.002-.002-.346-.338-.007-.007-.08-.08-.012-.01-.338-.329-.012-.011-.078-.075-.015-.015-.078-.076-.008-.007-.338-.327-.019-.018-.077-.074-.01-.01-.25-.239-.011-.012-.076-.072-.018-.017-.076-.073-.016-.015-.336-.32-.015-.015-.078-.073-.016-.016-.077-.073-.012-.012-.247-.233-.016-.015-.073-.07-.025-.023-.074-.07-.009-.008-.237-.224-.033-.03-.066-.062-.03-.028-.068-.065-.023-.021-.237-.222-.02-.019-.07-.065-.029-.027-.069-.064-.024-.023-.074-.069-.004-.003-.174-.162-.003-.003a7.142 7.142 0 0 0-.073-.068l-.027-.025-.068-.062-.03-.028-.07-.066-.012-.01-.24-.221-.032-.03-.067-.062-.026-.025-.074-.067-.016-.014c-.082-.077-.16-.148-.244-.224l-.02-.02-.073-.066-.025-.023-.074-.067-.02-.02-.245-.222-.015-.015-.077-.07-.02-.016-.076-.07-.02-.018-.252-.23-.01-.007-.066-.061-.037-.033-.065-.059-.032-.029-.067-.06-.026-.024-.15-.135-.013-.011-.073-.066-.024-.021-.072-.065-.03-.026-.07-.064-.022-.02-.24-.214-.023-.02-.074-.067-.025-.022a6.615 6.615 0 0 0-.07-.063l-.032-.028-.239-.213-.017-.015-.069-.061-.036-.032-.065-.057-.032-.03-.07-.061-.008-.007-.168-.148-.011-.01-.074-.066-.026-.023-.071-.062-.03-.026-.072-.064-.016-.014-.245-.214-.028-.025-.068-.06-.034-.03-.066-.057-.037-.033-.225-.196-.033-.028-.06-.053-.047-.04-.06-.053-.036-.031-.236-.204-.022-.02a6.558 6.558 0 0 1-.07-.06l-.032-.028-.068-.058-.034-.03-.069-.059-.018-.016-.141-.122-.033-.028-.064-.054-.04-.034-.066-.057-.034-.03-.067-.057-.032-.028-.135-.115-.028-.024-.062-.053-.041-.036-.06-.05a1.994 1.994 0 0 0-.048-.042l-.058-.048-.038-.033-.227-.193-.034-.029-.069-.058-.032-.027-.07-.06-.028-.023a47.541 47.541 0 0 0-.237-.2l-.03-.026-.068-.057-.038-.032-.066-.056-.034-.028-.07-.059-.025-.022-.132-.11-.039-.033-.062-.052-.043-.036-.06-.05-.044-.037-.064-.054-.028-.022-.14-.117-.028-.023-.063-.053-.043-.036-.065-.054-.033-.027-.072-.06-.028-.023c-.078-.066-.16-.134-.24-.199l-.03-.024-.072-.06-.027-.023-.078-.064-.02-.017-.24-.198-.038-.03-.061-.05-.046-.038-.058-.048-.052-.043-.055-.045-.052-.042-.106-.087-.044-.036-.06-.049-.047-.038-.061-.05-.044-.036-.06-.05-.048-.038-.096-.078-.062-.05-.055-.045-.048-.038-.062-.05-.045-.037-.06-.05-.046-.035-.133-.109-.023-.018-.061-.05-.047-.037-.06-.047-.051-.042-.051-.041-.062-.05-.049-.04-.1-.08-.049-.039-.056-.045-.056-.045-.054-.043-.054-.044-.053-.042-.055-.044-.068-.054-.076-.06-.064-.051-.052-.041-.058-.046-.05-.04-.059-.047-.052-.041-.068-.054-.067-.053-.07-.056-.06-.047-.05-.04-.057-.045-.053-.042-.054-.042-.059-.046-.218-.172-.036-.029-.063-.049-.05-.039-.058-.045-.051-.04-.057-.045-.067-.052-.081-.064-.064-.049-.047-.037-.06-.047-.053-.04-.059-.047-.05-.04-.072-.055-.078-.06-.06-.047-.052-.04-.06-.047-.051-.039-.065-.05-.043-.033c-.024-.02-.053-.041-.078-.06l-.059-.046a8.145 8.145 0 0 0-.079-.06l-.049-.038-.06-.047-.052-.04-.062-.048-.048-.036-.065-.05-.046-.036-.103-.079-.043-.032a6.34 6.34 0 0 0-.069-.053l-.048-.037-.063-.048-.048-.037-.067-.05-.045-.035-.106-.08-.036-.028-.072-.055-.05-.037-.064-.05-.047-.035-.068-.052-.042-.032a16.467 16.467 0 0 1-.108-.082l-.022-.016a6.285 6.285 0 0 0-.09-.068l-.04-.03-.072-.054-.044-.034-.068-.05-.047-.036a9.867 9.867 0 0 0-.086-.065l-.023-.017a15.524 15.524 0 0 0-.108-.081l-.04-.03-.074-.056-.044-.032a3.47 3.47 0 0 0-.065-.049l-.05-.037-.076-.057-.033-.025-.111-.084-.025-.018-.088-.065-.037-.028-.076-.056-.04-.03-.098-.072-.01-.008-.119-.088-.012-.01-.1-.073-.034-.025-.078-.058-.04-.03-.085-.062-.027-.02-.115-.085-.005-.004a22.863 22.863 0 0 0-.108-.079l-.032-.023-.082-.061-.038-.028a9.111 9.111 0 0 1-.08-.059l-.034-.024-.104-.076-.01-.008-.113-.082-.035-.026-.075-.055-.045-.033-.079-.057-.032-.023a24.282 24.282 0 0 1-.11-.081l-.002-.001-.12-.087-.018-.013-.093-.068-.038-.027-.081-.059-.031-.023-.1-.07-.016-.013-.118-.085-.01-.008-.103-.074-.032-.023-.09-.064-.026-.019-.096-.07-.021-.014-.233-.167-.028-.02-.091-.065-.028-.02-.095-.068-.022-.016-.234-.166-.027-.02a6.222 6.222 0 0 0-.091-.064l-.03-.021-.09-.065-.027-.018a16.737 16.737 0 0 1-.113-.08l-.003-.002-.119-.085-.02-.015-.098-.069-.025-.017-.096-.067-.025-.018-.106-.075-.01-.007-.12-.084-.015-.01a20.427 20.427 0 0 0-.103-.073l-.026-.018-.093-.065-.028-.02-.099-.069-.018-.013-.24-.167-.019-.013-.097-.068-.03-.02-.094-.066-.022-.015a86.231 86.231 0 0 1-.239-.166l-.02-.013-.097-.068-.028-.019-.099-.068-.019-.014-.244-.167-.001-.002-.116-.079-.022-.015-.1-.068-.021-.015-.113-.077-.005-.004-.245-.167-.017-.012a15.18 15.18 0 0 1-.105-.071l-.018-.013a16.91 16.91 0 0 0-.112-.076l-.008-.006-.244-.165-.02-.014-.101-.068-.022-.015-.1-.068-.023-.015-.243-.164-.009-.006-.114-.077-.014-.01a22.697 22.697 0 0 0-.108-.072l-.016-.01-.368-.247-.017-.011a14.454 14.454 0 0 1-.103-.07l-.023-.014a288.66 288.66 0 0 0-.37-.246l-.006-.005-.115-.076-.013-.009-.374-.247-.008-.005-.112-.074-.02-.013-.495-.325-.01-.006-.121-.08c-.005-.002.001.002-.003-.001l-.376-.245-.016-.01-.117-.076-.003-.002-.379-.245-.011-.007-.117-.076-.008-.005-.38-.245-.004-.002-.121-.078-.01-.005a128.53 128.53 0 0 0-.51-.325l-.001-.002a201.625 201.625 0 0 0-51.85-23.467 10.664 10.664 0 0 0-2.947-.416zM53.333 256h-.57l-.094.001h-.165l-.085.001h-.164l-.085.001h-.08l-.084.001h-.088l-.078.002H51.674l-.087.002H51.419l-.075.001-.093.001-.072.001-.092.001-.074.001-.094.001-.07.001-.095.001-.07.001-.1.001-.063.001-.103.002h-.06l-.107.002h-.058l-.108.003h-.054l-.113.003h-.05l-.115.002-.048.001-.119.002-.042.001-.123.002-.038.001-.13.003h-.028l-.137.003h-.023l-.145.003h-.01l-.155.004h-.001q-7.502.166-14.856.87h-.01l-.146.014-.017.002-.138.013-.025.002-.13.013-.034.003-.119.012-.05.005-.105.01-.059.006-.094.01-.076.007-.079.008-.089.009-.068.007-.101.01-.057.006-.108.011-.051.005-.121.013-.036.003-.132.014-.02.002a10.667 10.667 0 1 0 2.218 21.218 184.51 184.51 0 0 1 19.082-.99 10.667 10.667 0 1 0 0-21.334z" style="fill:#14a142"/><path d="M277.333 490.667A21.328 21.328 0 0 1 256 469.333C256 351.698 160.292 256 42.667 256a21.333 21.333 0 1 1 0-42.667c141.166 0 256 114.844 256 256a21.328 21.328 0 0 1-21.334 21.334z" style="fill:#fffc74"/><path d="M149.313 281.594a21.142 21.142 0 0 1-9.688-2.344 212.067 212.067 0 0 0-38.77-15.219 21.338 21.338 0 0 1 11.624-41.062 254.631 254.631 0 0 1 46.563 18.302 21.327 21.327 0 0 1-9.73 40.323z" style="fill:#ffffc5"/><path d="M277.333 490.667A21.328 21.328 0 0 1 256 469.333a214.532 214.532 0 0 0-8.02-58.198 21.325 21.325 0 1 1 41.04-11.604 256.592 256.592 0 0 1 9.647 69.802 21.328 21.328 0 0 1-21.334 21.334z" style="fill:#ffea21"/><path d="M469.333 298.667c-141.166 0-256-114.844-256-256a21.333 21.333 0 1 1 42.667 0C256 160.302 351.708 256 469.333 256a21.333 21.333 0 1 1 0 42.667z" style="fill:#fffc74"/><path d="M469.333 298.667a256.508 256.508 0 0 1-69.791-9.636 21.332 21.332 0 0 1 11.583-41.062A214.03 214.03 0 0 0 469.333 256a21.333 21.333 0 1 1 0 42.667z" style="fill:#ffea21"/><path d="M235.75 43.78q-1.01 0-2.038.097A21.334 21.334 0 0 0 214.48 67.06a254.51 254.51 0 0 0 13.524 61.233v.002l.064.18.003.008.064.18v.001l.066.183v.002c.264.738.528 1.463.798 2.198l.004.013.061.165.008.021.058.157.012.032.057.154.011.03.056.152.015.038.054.148.014.035.055.15.015.037.056.152.01.026.06.16.009.024.06.162.006.017.064.166.007.02c.155.412.316.835.473 1.246l.008.02.056.146.016.042.054.14.017.046.052.134.02.054.05.126.024.063c.014.039.03.078.045.116l.028.074.045.115.027.07.044.114.028.073.045.114.03.076.04.105.034.086.04.1.035.09.037.096.036.09.038.099.037.093.035.09.043.108.032.08.044.113.03.073.072.184.028.07.048.119c.011.03.016.043.029.073l.044.112.033.082.042.106.033.081.042.106.031.078.045.112.03.073.045.112.031.078.044.11.032.077.043.109.032.078.045.112.03.072.048.118.027.067.05.123.026.064.052.127.023.058.057.139.02.046c.02.052.04.102.062.153l.013.033.07.17.006.016c.131.318.26.632.393.949l.003.008.075.18.007.017.07.168.012.03.067.157.013.033.065.153.016.04.063.15.015.033.066.158.011.027.072.17.005.012.074.175.007.015.075.178.004.009.078.185.002.002a254.88 254.88 0 0 0 12.497 25.367 21.333 21.333 0 1 0 37.17-20.948 210.78 210.78 0 0 1-26.364-84.12A21.335 21.335 0 0 0 235.75 43.78z" style="fill:#ffffc5"/><path d="M203.999 58.683q-.53 0-1.068.053a10.666 10.666 0 0 0-9.56 11.67 277.065 277.065 0 0 0 47.089 128.926 10.667 10.667 0 0 0 17.6-12.057q-3.193-4.654-6.182-9.454l-.003-.004-.12-.193-.012-.018-.182-.295-.015-.023c-.059-.096-.122-.196-.18-.292l-.017-.027-.308-.5-.006-.01-.183-.298-.014-.023c-.059-.096-.12-.198-.18-.294l-.016-.027a21.786 21.786 0 0 1-.113-.186l-.006-.009-.06-.1-.008-.012-.113-.185-.015-.024c-.057-.097-.115-.19-.173-.287l-.024-.039-.168-.28a1.236 1.236 0 0 0-.027-.044l-.087-.145-.028-.046-.052-.087-.026-.043c-.03-.048-.058-.097-.087-.145l-.03-.048-.048-.082-.044-.073-.067-.113-.037-.06-.047-.079-.066-.11-.045-.076-.035-.06-.072-.12-.04-.07-.044-.072-.042-.069-.072-.122-.035-.06-.046-.078-.04-.066-.073-.124-.033-.056-.046-.077-.067-.114-.04-.07-.046-.076-.052-.09-.052-.089-.045-.075-.043-.073a9.014 9.014 0 0 0-.062-.106l-.042-.072-.044-.074-.054-.094-.051-.087-.044-.076-.041-.07-.068-.116a3.707 3.707 0 0 1-.04-.069c-.014-.024-.03-.05-.043-.075l-.046-.078a8.679 8.679 0 0 0-.062-.106l-.038-.067-.05-.085-.052-.09-.051-.089-.038-.065a8.72 8.72 0 0 1-.06-.104l-.047-.082-.043-.074a10.282 10.282 0 0 0-.15-.26 2.944 2.944 0 0 0-.04-.069l-.05-.089-.057-.099-.04-.069-.045-.08-.057-.1-.044-.077a3.715 3.715 0 0 1-.04-.07c-.02-.033-.042-.073-.06-.106a4.143 4.143 0 0 1-.042-.073c-.019-.031-.034-.058-.051-.089a2.788 2.788 0 0 1-.034-.06l-.072-.125a2.823 2.823 0 0 0-.034-.06l-.046-.082-.039-.068-.067-.12a3.754 3.754 0 0 0-.034-.058l-.054-.097-.045-.08-.056-.097-.031-.058-.074-.13-.027-.048c-.02-.033-.036-.062-.054-.096l-.032-.057a12.711 12.711 0 0 0-.073-.128l-.028-.052-.059-.104-.025-.046-.073-.13-.032-.057-.065-.117-.018-.032a17.989 17.989 0 0 0-.073-.13l-.028-.05-.074-.135-.022-.039-.062-.11-.028-.052a13.006 13.006 0 0 1-.072-.13l-.029-.051-.058-.107-.023-.04-.074-.134-.03-.056a10.32 10.32 0 0 1-.056-.1l-.04-.073c-.019-.034-.04-.07-.058-.105l-.031-.056-.072-.132-.024-.043-.06-.108-.025-.046-.074-.136-.027-.05a8.677 8.677 0 0 0-.059-.106l-.023-.043-.074-.135-.03-.055a7.823 7.823 0 0 0-.09-.168l-.06-.107c-.01-.021-.02-.038-.032-.06l-.067-.124a1.96 1.96 0 0 1-.03-.056l-.054-.098-.03-.057-.072-.132-.026-.05-.056-.102-.026-.048-.073-.136-.024-.046-.067-.123-.02-.038a12.35 12.35 0 0 0-.07-.13l-.026-.047-.075-.14-.016-.032-.067-.124-.02-.036-.078-.146-.016-.033-.071-.133-.013-.024-.079-.147-.021-.04-.075-.14-.004-.009-.079-.149-.02-.039c-.027-.05-.053-.097-.079-.148l-.01-.02-.07-.133-.022-.04-.076-.144-.017-.032-.067-.128-.016-.03-.078-.15-.016-.03a15.518 15.518 0 0 1-.076-.145l-.007-.012a18.34 18.34 0 0 1-.08-.153l-.017-.032-.08-.152-.007-.015-.075-.145-.013-.026-.08-.15-.015-.032-.072-.138-.01-.019-.082-.157-.01-.022-.163-.314-.018-.034-.077-.15-.01-.02-.07-.137-.019-.035-.078-.151-.012-.024-.068-.134-.017-.031-.076-.15-.016-.031-.074-.146-.006-.012-.08-.156-.014-.027a17.213 17.213 0 0 0-.081-.16l-.08-.158-.013-.023-.08-.157-.01-.02a15.397 15.397 0 0 0-.073-.146l-.01-.02-.077-.154-.017-.032-.156-.311-.017-.032-.078-.156-.004-.008-.074-.148-.016-.033-.076-.152-.012-.023-.072-.145-.01-.018a17.308 17.308 0 0 1-.077-.156l-.016-.03-.071-.144-.007-.016a16.26 16.26 0 0 1-.077-.155l-.016-.03-.077-.157-.004-.007a16.65 16.65 0 0 1-.075-.153l-.013-.026-.077-.155-.013-.026-.07-.142-.01-.021-.078-.158-.011-.024-.157-.32-.014-.027a73.275 73.275 0 0 1-.157-.322l-.011-.023a14.526 14.526 0 0 0-.079-.16l-.006-.015-.074-.15-.01-.021-.076-.158-.012-.025-.075-.155-.004-.006-.076-.158-.015-.032-.076-.157-.002-.005-.075-.155-.013-.027-.077-.16-.005-.012-.077-.16-.006-.011-.078-.163-.01-.021-.155-.327-.011-.022-.154-.325-.013-.026-.076-.161-.005-.01a14.22 14.22 0 0 0-.078-.164l-.003-.007-.079-.168-.006-.014-.16-.337-.005-.013-.156-.333-.01-.02-.075-.162-.01-.02-.07-.152-.008-.015-.076-.164-.008-.018-.154-.332-.01-.02a75.408 75.408 0 0 0-.154-.334l-.007-.015a79.748 79.748 0 0 1-.156-.338l-.006-.012-.077-.169-.004-.01-.156-.342-.006-.012-.154-.337-.008-.018-.076-.167-.004-.009c-.024-.054-.05-.108-.073-.162l-.007-.013a18.468 18.468 0 0 0-.073-.163l-.011-.024-.149-.33-.01-.021-.149-.332-.01-.022-.074-.168a20.592 20.592 0 0 1-.079-.175l-.001-.004-.077-.171-.005-.012-.153-.344-.005-.01-.39-.882-.002-.006-.15-.342-.01-.022-.146-.335-.008-.02c-.05-.113-.1-.227-.148-.34l-.005-.012-.075-.172-.003-.006-.149-.345-.008-.02-.145-.337-.008-.017-.073-.17-.002-.005-.072-.169-.005-.01a19.475 19.475 0 0 1-.072-.17l-.007-.016a77.226 77.226 0 0 0-.145-.341l-.007-.016-.143-.338-.01-.022-.07-.168-.003-.007-.07-.165-.006-.014-.071-.17-.006-.012-.072-.172v-.001l-.071-.171-.008-.018-.142-.34-.007-.018-.07-.168-.006-.013-.068-.165-.004-.01a19.797 19.797 0 0 1-.072-.174l-.003-.006-.145-.35-.006-.015-.142-.346-.005-.012-.141-.346-.007-.015-.07-.173-.003-.006-.144-.354-.003-.007-.143-.355-.003-.006-.144-.358-.001-.002-.072-.178-.002-.007a65.275 65.275 0 0 1-.142-.352l-.004-.012-.139-.348-.006-.016-.212-.534-.003-.007-.068-.171-.003-.009-.068-.174-.005-.011-.137-.35-.006-.013-.139-.358-.072-.182v-.001a69.52 69.52 0 0 1-.139-.36l-.004-.009-.138-.359-.001-.001-.14-.364-.208-.544-.004-.01-.136-.358v-.003l-.207-.546-.001-.003a68.176 68.176 0 0 1-.135-.36l-.004-.01-.134-.358-.002-.006-.135-.363v-.001l-.338-.912-.003-.01-.132-.362-.001-.002c-.067-.183-.134-.364-.2-.548l-.003-.007-.13-.363-.002-.002-.132-.367v-.001l-.197-.552-.001-.002-.13-.367-.001-.002-.13-.367-.001-.003-.324-.92-.001-.006q-.387-1.108-.764-2.222v-.002l-.125-.37-.001-.002q-.656-1.95-1.284-3.919c-.14-.437-.277-.871-.413-1.31l-.002-.005-.115-.367-.003-.01A254.788 254.788 0 0 1 214.6 68.295a10.668 10.668 0 0 0-10.602-9.612z" style="fill:#84d89c"/><path d="M409.752 291.983a10.668 10.668 0 0 0-2.363 21.068A278.82 278.82 0 0 0 469.333 320q3.431 0 6.843-.083a10.667 10.667 0 0 0-.253-21.33c-.089 0-.176 0-.265.003q-1.709.042-3.424.06h-.013l-.19.003h-.022l-.178.002h-.033l-.17.002h-.037l-.165.001h-.044l-.155.002h-.054l-.146.001h-.06l-.142.002h-.269l-.136.002H470.01l-.065.001H468.454l-.094-.001h-.219l-.13-.001-.091-.001h-.135l-.083-.001-.143-.001h-.08l-.215-.002h-.034l-.185-.002-.079-.001-.142-.001-.087-.001c-.043 0-.087 0-.13-.002h-.095l-.127-.002h-.093l-.127-.003h-.092l-.13-.002-.091-.001-.126-.002-.096-.002-.14-.002h-.077l-.217-.004h-.033l-.185-.004-.078-.001-.14-.002-.089-.002-.133-.002-.085-.002-.135-.003-.09-.001a16.024 16.024 0 0 0-.129-.003l-.09-.002-.129-.002-.094-.002-.131-.003-.085-.002-.153-.004-.066-.001-.219-.005-.035-.001-.18-.004-.082-.002a19.817 19.817 0 0 0-.14-.004l-.085-.002-.13-.003-.096-.003-.122-.003-.1-.003-.116-.003-.103-.003-.12-.004-.096-.003a17.213 17.213 0 0 1-.13-.003l-.087-.003-.16-.005-.058-.002-.216-.006-.064-.002-.153-.005-.089-.003a16.744 16.744 0 0 1-.129-.004l-.098-.004-.119-.004-.1-.003a13.742 13.742 0 0 0-.117-.004l-.104-.004a14.3 14.3 0 0 1-.113-.004l-.103-.004a13.828 13.828 0 0 1-.12-.004l-.096-.004-.135-.005-.08-.003-.151-.005-.07-.003-.214-.008-.07-.003-.146-.006-.091-.004a18.081 18.081 0 0 0-.126-.005l-.1-.004-.115-.005-.104-.004-.117-.006-.099-.004a16.957 16.957 0 0 1-.121-.005l-.094-.004a15.28 15.28 0 0 1-.128-.006l-.092-.004-.127-.006-.09-.004-.15-.007-.067-.003-.214-.01-.066-.003-.151-.007-.084-.005-.132-.006-.094-.005a18.67 18.67 0 0 1-.125-.006l-.09-.004a15.26 15.26 0 0 1-.13-.007l-.09-.004-.127-.007-.091-.005-.128-.006-.09-.005-.137-.007-.08-.005-.164-.009-.053-.003a45.988 45.988 0 0 1-.213-.011l-.088-.005-.125-.007-.1-.006-.12-.007a8.705 8.705 0 0 1-.215-.012l-.1-.006-.118-.007-.099-.006-.118-.007-.099-.005a15.499 15.499 0 0 0-.121-.008l-.095-.006-.127-.008-.09-.005-.184-.011-.03-.002-.213-.014-.083-.005-.133-.008-.094-.007-.12-.007a11.916 11.916 0 0 1-.1-.007l-.117-.007-.101-.007-.113-.008-.105-.007-.112-.007-.103-.007-.115-.008-.1-.007-.126-.009-.088-.006-.145-.01-.148-.01-.133-.01-.096-.007-.118-.008-.1-.008a14.104 14.104 0 0 1-.118-.008l-.098-.007a13.42 13.42 0 0 0-.117-.009l-.101-.007-.117-.009-.097-.007-.12-.01-.095-.006-.13-.01-.085-.007-.132-.01-.086-.007-.195-.015-.074-.006-.156-.012-.09-.007-.122-.01-.104-.009-.11-.008-.107-.01-.11-.008-.101-.008-.114-.01-.104-.008-.108-.01-.108-.008-.103-.009a13.66 13.66 0 0 0-.114-.01l-.104-.009-.107-.009-.13-.01-.182-.017-.107-.009-.11-.01c-.033-.003-.07-.005-.103-.009l-.107-.01-.11-.009-.105-.009a11.942 11.942 0 0 0-.108-.01l-.106-.01-.11-.01-.106-.009-.105-.01-.11-.01-.104-.009-.11-.01-.106-.01-.107-.01-.14-.013-.17-.016c-.034-.004-.073-.008-.107-.01l-.113-.012-.099-.009-.115-.011-.098-.01a13.76 13.76 0 0 1-.116-.01l-.096-.01-.116-.011-.097-.01-.117-.012-.096-.009-.115-.011-.101-.01-.113-.012-.105-.01-.106-.011-.152-.016-.161-.016-.104-.011-.11-.011-.101-.01-.114-.013-.099-.01-.119-.013-.088-.009-.124-.013-.09-.01-.12-.012-.093-.01-.119-.013-.089-.01-.126-.013-.052-.006-.511-.056-.052-.006-.149-.017-.06-.006-.143-.016-.068-.008-.14-.016-.072-.008-.133-.015-.078-.01-.135-.014-.071-.009-.138-.016-.063-.007-.71-.084-.05-.006-.149-.017-.06-.007-.141-.018-.07-.008-.138-.017-.07-.008-.14-.017-.067-.008-.144-.018-.055-.007-.156-.02-.038-.004c-.25-.03-.5-.062-.75-.094l-.023-.003-.163-.02-.046-.007a24.118 24.118 0 0 1-.155-.02l-.052-.006-.155-.02-.051-.007-.156-.02-.048-.006-.161-.021-.036-.005-.17-.023-.019-.002c-.262-.034-.522-.07-.784-.105a39.797 39.797 0 0 1-.178-.024l-.03-.004-.164-.022-.046-.006-.16-.022-.041-.006-.165-.023-.038-.005-.17-.023-.024-.004c-.393-.055-.785-.11-1.177-.167h-.002l-.189-.027-.016-.002-.183-.027-.02-.003-.18-.026-.022-.004c-.524-.076-1.049-.155-1.571-.235h-.01l-.193-.03-.003-.001q-9.115-1.4-18.012-3.433a10.707 10.707 0 0 0-2.383-.27zM420.748 228.808a10.668 10.668 0 0 0-2.54 21.027 212.935 212.935 0 0 0 34.96 5.561h.003q.503.038 1.008.074h.008l.195.014h.005l.801.054.022.002.179.011.02.002q.3.02.6.037l.007.001.185.012.03.001.172.01.024.002.6.035h.004c.063.004.127.008.19.01l.025.002.172.01.03.001.187.01h.006c.135.008.27.016.405.022h.003l.19.01.027.002.173.009.028.001.18.009h.016l.403.02h.003l.19.01h.031l.162.008.042.002.165.008h.028c.133.007.264.013.398.018h.017l.173.008.045.002.152.006.046.002.156.006.039.002.394.015.017.001.174.007.047.001.147.005.052.002.153.006.04.001.187.007h.006l.201.007h.016l.175.006.048.001.147.005.053.002.142.004.055.002.169.005h.022c.065.003.13.005.197.006l.025.001.166.005.054.001.139.004.062.002.137.003.054.001.164.005h.029l.195.005h.036l.152.004.067.002.128.003.068.001.125.003.07.002.139.002.051.001.192.004h.036l.153.004h.068c.041.002.083.002.125.003l.073.001.122.002.07.001.133.002.06.001.189.003h.03l.16.003h.064l.13.002.07.001.123.002h.071l.137.002h.054l.193.002h.017l.173.002h.064l.128.002h.073l.123.001h.068l.136.001h.058l.191.002h.19l.067.001h.321l.072.001h1.012l.11-.001h.188l.074-.001h.117l.068-.001h.183l.185-.002h.03l.157-.002h.055l.13-.001h.065l.12-.002h.07l.114-.002h.072l.12-.002h.065l.132-.002.05-.001.165-.002h.021l.19-.003h.015l.17-.003h.046l.14-.003h.055l.13-.003h.06l.126-.003.064-.001.13-.003h.05l.149-.003h.038l.378-.009h.013l.173-.004.041-.001.142-.003.055-.002.134-.002.052-.002.137-.003.05-.001.144-.004.042-.001.165-.004.02-.001.38-.01.02-.001.164-.005.043-.001.142-.005.052-.001.135-.004.054-.002.128-.004.063-.002.128-.004.056-.002.139-.005.046-.001.365-.013.075-.003.108-.004.082-.003.1-.003.087-.004.093-.003.094-.004.08-.003.106-.004.07-.003.113-.004.05-.002.628-.027h.017l.152-.007.023-.001.156-.007h.013c.882-.04 1.75-.085 2.63-.136a10.667 10.667 0 0 0-.642-21.313c-.205 0-.412.006-.619.017q-5.54.317-11.16.319a192.914 192.914 0 0 1-46.03-5.548 10.695 10.695 0 0 0-2.555-.311zM303.532 403.017a10.676 10.676 0 0 0-10.445 12.884 257.864 257.864 0 0 1 5.58 53.432q0 2.653-.054 5.293a10.667 10.667 0 0 0 10.449 10.88l.22.002a10.668 10.668 0 0 0 10.66-10.406l.03-1.72v-.037l.002-.168v-.055l.003-.166v-.07l.003-.166.001-.093v-.107c.002-.035.002-.07.002-.105l.001-.095.001-.107.001-.087.002-.227.001-.065.001-.12.001-.081v-.116l.001-.088v-.114c.002-.028.002-.055.002-.083v-.196l.002-.103V470.63l.001-.113.001-.088V470.199l.001-.172v-.207l.001-.075v-1.099l-.001-.088v-.234c0-.045 0-.09-.002-.135v-.329l-.001-.126-.001-.103v-.125l-.001-.107-.001-.12-.001-.106-.001-.125v-.102a8.35 8.35 0 0 1-.002-.128l-.001-.1v-.126c-.002-.037-.002-.07-.002-.107 0-.04 0-.08-.002-.12v-.107l-.002-.121-.001-.108-.002-.121-.001-.104-.001-.125-.002-.106-.002-.12v-.107l-.003-.122-.001-.106-.002-.125-.002-.101-.002-.127-.001-.103-.003-.128-.001-.097-.003-.137-.001-.09a9.774 9.774 0 0 1-.003-.144l-.002-.083-.002-.147-.002-.082-.003-.16-.001-.066-.004-.18-.002-.049c-.004-.23-.01-.458-.015-.689v-.023l-.005-.203-.002-.057-.004-.173-.002-.059c0-.055-.003-.11-.004-.165l-.002-.078-.004-.152-.002-.073-.005-.154-.002-.076c0-.05-.003-.104-.004-.154l-.002-.073-.005-.153-.002-.078-.004-.152a3.004 3.004 0 0 1-.003-.076l-.004-.15-.003-.077-.004-.154a2.832 2.832 0 0 1-.003-.075l-.005-.15-.003-.08-.004-.148-.003-.08-.005-.147c0-.028-.002-.052-.003-.08l-.005-.152a2.756 2.756 0 0 1-.003-.073l-.006-.156c0-.028 0-.043-.002-.071l-.006-.163-.002-.062a14.574 14.574 0 0 1-.006-.168l-.002-.06a14.614 14.614 0 0 1-.007-.17l-.003-.058c-.002-.055-.003-.112-.006-.167 0-.028-.001-.034-.003-.062l-.007-.18-.001-.043-.008-.195-.001-.032-.01-.213v-.013c-.035-.842-.074-1.685-.117-2.525v-.01a23.514 23.514 0 0 1-.011-.216l-.002-.02-.01-.204-.002-.033-.01-.197-.002-.029-.01-.199-.002-.03-.011-.197-.002-.033-.01-.194-.002-.035-.012-.2v-.022l-.013-.206v-.023c-.005-.07-.01-.138-.013-.207l-.001-.02-.013-.21v-.018l-.014-.221v-.001a277.344 277.344 0 0 0-5.541-41.01 10.67 10.67 0 0 0-10.423-8.455zM238.206 405.165a10.676 10.676 0 0 0-10.296 13.478 192.557 192.557 0 0 1 6.757 50.69q0 3.182-.103 6.34a10.666 10.666 0 0 0 10.316 11.005c.118.004.235.006.352.006a10.666 10.666 0 0 0 10.654-10.322q.024-.704.041-1.41l.001-.042.004-.114c0-.036 0-.069.002-.105v-.043c.036-1.422.057-2.842.063-4.272v-.014l.002-.327V469.837l.001-.146v-.894l-.001-.153v-.007l-.001-.148v-.201l-.001-.143v-.034c0-.05 0-.103-.002-.153v-.191l-.002-.153v-.159l-.001-.032-.002-.152v-.025l-.001-.134v-.032l-.002-.154v-.021l-.002-.14v-.028l-.003-.154v-.025l-.002-.137v-.027a12.502 12.502 0 0 1-.002-.155v-.022l-.002-.143v-.022l-.003-.158v-.02l-.003-.151v-.01l-.003-.163v-.017l-.003-.151v-.015l-.003-.158v-.026l-.003-.143-.001-.016c0-.058-.002-.102-.003-.16v-.02l-.004-.15v-.013l-.003-.157-.001-.027-.003-.153v-.003l-.004-.163v-.02l-.004-.152v-.01l-.005-.158v-.027l-.004-.153v-.003l-.004-.16v-.025l-.01-.319v-.022l-.01-.32v-.023l-.01-.322v-.017l-.012-.328v-.011l-.012-.332v-.01l-.011-.332v-.01a56.211 56.211 0 0 0-.013-.33l-.001-.013-.013-.333v-.005l-.013-.333v-.012l-.015-.333v-.006l-.015-.336v-.005a212.985 212.985 0 0 0-7.306-46.726 10.671 10.671 0 0 0-10.275-7.827z" style="fill:#006236"/><path d="M93.46 196.83a10.668 10.668 0 0 0-2.008 21.142 253.417 253.417 0 0 1 90.681 36.648 10.667 10.667 0 0 0 11.67-17.858 275.595 275.595 0 0 0-98.359-39.746 10.728 10.728 0 0 0-1.984-.186z" style="fill:#84d89c"/></svg>